<?xml version="1.0" standalone="no"?>
<!DOCTYPE svg PUBLIC "-//W3C//DTD SVG 1.1//EN" "http://www.w3.org/Graphics/SVG/1.1/DTD/svg11.dtd" >
<svg>
<metadata>
Created by FontForge 20090622 at Fri Dec 11 21:38:35 2015
 By www
Digitized data copyright 2003 Spencer Parks and Justin Callaghan :: Freeware from mickeyavenue.com
</metadata>
<defs>
<font id="FloridaProject-PhaseOne" horiz-adv-x="530" >
  <font-face 
    font-family="Florida Project Phase One"
    font-weight="400"
    font-stretch="normal"
    units-per-em="1000"
    panose-1="2 0 6 8 6 0 0 2 0 4"
    ascent="800"
    descent="-200"
    x-height="521"
    cap-height="692"
    bbox="-53 -286 7828 992"
    underline-thickness="82"
    underline-position="0"
    unicode-range="U+0020-U+2212"
  />
<missing-glyph horiz-adv-x="809" 
d="M392 119h-43q11 -16 22.5 -28.5t20.5 -20.5v49zM422 69q10 9 21 21t22 29h-43v-50v0zM392 409q-11 -10 -23.5 -23t-24.5 -32h48v55zM422 354h48q-12 19 -24.5 32t-23.5 23v-55zM456 61q55 15 90 58h-45q-11 -18 -22.5 -32.5t-22.5 -25.5zM267 119q36 -42 91 -58
q-21 20 -45 58h-46v0zM551 354q-17 23 -41.5 39t-52.5 24q25 -24 48 -63h46v0zM357 417q-58 -17 -95 -63h47q11 20 24 35.5zM592 255q-5 39 -21 69h-52q6 -15 10 -32t6 -37h57zM244 324q-18 -30 -21 -69h57q3 39 15 69h-51v0zM298 148q-15 34 -18 77h-57q3 -43 24 -77h51v0z
M568 148q19 34 24 77h-57q-3 -40 -19 -77h52v0zM392 324h-64q-7 -15 -12 -32t-7 -37h83v69zM422 255h83q-2 20 -6.5 37t-11.5 32h-65v-69zM392 225h-83q2 -22 8 -41t14 -36h61v77zM422 148h61q8 17 14 36t8 41h-83v-77zM407 25q-44 0 -83 17t-68 46t-46 68t-17 84
q0 35 10.5 66.5t29.5 57.5q-32 -14 -63 -14t-53.5 9.5t-36.5 25.5t-21 37t-7 44q0 30 12.5 57.5t33.5 47.5t48.5 32t57.5 12q25 0 46.5 -10t36.5 -26.5t23.5 -38.5t8.5 -45q0 -17 -4.5 -35t-13.5 -34q23 13 50 20.5t56 7.5q28 0 54 -7t49 -19q-8 16 -13 33t-5 34
q0 23 8.5 45t24 38.5t37 26.5t46.5 10q30 0 57.5 -12t48.5 -32t33.5 -47.5t12.5 -57.5q0 -23 -7 -43.5t-22 -37t-37 -26t-52 -9.5q-14 0 -29 3t-31 11q19 -27 29.5 -58t10.5 -66q0 -45 -17 -84t-46 -68t-68 -46t-84 -17z" />
    <glyph glyph-name=".notdef" horiz-adv-x="809" 
d="M392 119h-43q11 -16 22.5 -28.5t20.5 -20.5v49zM422 69q10 9 21 21t22 29h-43v-50v0zM392 409q-11 -10 -23.5 -23t-24.5 -32h48v55zM422 354h48q-12 19 -24.5 32t-23.5 23v-55zM456 61q55 15 90 58h-45q-11 -18 -22.5 -32.5t-22.5 -25.5zM267 119q36 -42 91 -58
q-21 20 -45 58h-46v0zM551 354q-17 23 -41.5 39t-52.5 24q25 -24 48 -63h46v0zM357 417q-58 -17 -95 -63h47q11 20 24 35.5zM592 255q-5 39 -21 69h-52q6 -15 10 -32t6 -37h57zM244 324q-18 -30 -21 -69h57q3 39 15 69h-51v0zM298 148q-15 34 -18 77h-57q3 -43 24 -77h51v0z
M568 148q19 34 24 77h-57q-3 -40 -19 -77h52v0zM392 324h-64q-7 -15 -12 -32t-7 -37h83v69zM422 255h83q-2 20 -6.5 37t-11.5 32h-65v-69zM392 225h-83q2 -22 8 -41t14 -36h61v77zM422 148h61q8 17 14 36t8 41h-83v-77zM407 25q-44 0 -83 17t-68 46t-46 68t-17 84
q0 35 10.5 66.5t29.5 57.5q-32 -14 -63 -14t-53.5 9.5t-36.5 25.5t-21 37t-7 44q0 30 12.5 57.5t33.5 47.5t48.5 32t57.5 12q25 0 46.5 -10t36.5 -26.5t23.5 -38.5t8.5 -45q0 -17 -4.5 -35t-13.5 -34q23 13 50 20.5t56 7.5q28 0 54 -7t49 -19q-8 16 -13 33t-5 34
q0 23 8.5 45t24 38.5t37 26.5t46.5 10q30 0 57.5 -12t48.5 -32t33.5 -47.5t12.5 -57.5q0 -23 -7 -43.5t-22 -37t-37 -26t-52 -9.5q-14 0 -29 3t-31 11q19 -27 29.5 -58t10.5 -66q0 -45 -17 -84t-46 -68t-68 -46t-84 -17z" />
    <glyph glyph-name=".null" horiz-adv-x="0" 
 />
    <glyph glyph-name="nonmarkingreturn" horiz-adv-x="300" 
 />
    <glyph glyph-name="space" unicode=" " horiz-adv-x="300" 
 />
    <glyph glyph-name="space" unicode="&#xa0;" horiz-adv-x="300" 
 />
    <glyph glyph-name="percent" unicode="%" horiz-adv-x="814" 
d="M651 74q8 0 17 4.5t9 16.5v208q0 12 -9 16.5t-17 4.5t-16.5 -4.5t-8.5 -16.5v-208q0 -12 8.5 -16.5t16.5 -4.5zM170 331q8 0 17 4.5t9 16.5v208q0 12 -9 16.5t-17 4.5t-16.5 -4.5t-8.5 -16.5v-208q0 -12 8.5 -16.5t16.5 -4.5zM473 655h130l-255 -655h-129zM651 413
q36 0 63.5 -10t45.5 -27.5t27.5 -40.5t9.5 -49v-174q0 -26 -9.5 -49.5t-27.5 -40.5t-45.5 -27t-63.5 -10t-63 10t-45 27t-27.5 40.5t-9.5 49.5v174q0 26 9.5 49t27.5 40.5t45 27.5t63 10zM170 670q36 0 63.5 -10t45.5 -27.5t27.5 -40.5t9.5 -49v-174q0 -26 -9.5 -49.5
t-27.5 -40.5t-45.5 -27t-63.5 -10t-63 10t-45 27t-27.5 40.5t-9.5 49.5v174q0 26 9.5 49t27.5 40.5t45 27.5t63 10z" />
    <glyph glyph-name="parenleft" unicode="(" horiz-adv-x="314" 
d="M279 -60q-51 2 -95.5 15.5t-77.5 39t-52 62.5t-19 87v362q0 50 18.5 87.5t51.5 63t77.5 38.5t96.5 15v-131h-1q-20 0 -34 -6.5t-23 -14.5t-13.5 -17t-4.5 -13v-406q0 -5 4 -13.5t13 -16.5t22.5 -14.5t33.5 -6.5h3v-131z" />
    <glyph glyph-name="parenright" unicode=")" horiz-adv-x="314" 
d="M35 71h3q19 0 33 6.5t23 14.5t13 16.5t4 13.5v406q0 4 -4.5 13t-13.5 17t-23 14.5t-34 6.5h-1v131q52 -2 96.5 -15t77.5 -38.5t51.5 -63t18.5 -87.5v-362q0 -50 -19 -87t-52 -62.5t-77.5 -39t-95.5 -15.5v131z" />
    <glyph glyph-name="asterisk" unicode="*" horiz-adv-x="507" 
d="M257 462l13 13t16 19h-29v-32v0zM217 494q8 -11 16 -19t14 -13v32h-30zM288 610q-8 13 -16.5 22t-14.5 14v-36h31zM247 646q-7 -5 -15.5 -14t-16.5 -22h32v36v0zM175 494q24 -29 60 -35q-7 5 -14.5 14t-15.5 21h-30zM269 459q37 6 59 35h-30q-7 -12 -14.5 -21t-14.5 -14z
M203 610q8 14 16 23.5t16 15.5q-19 -3 -35 -13.5t-27 -25.5h30v0zM331 610q-23 33 -62 39q7 -6 15.5 -15.5t15.5 -23.5h31zM167 600q-10 -18 -12 -41h34q2 23 9 41h-31zM349 559q-2 23 -12 41h-32q4 -9 6.5 -19.5t2.5 -21.5h35zM155 549q1 -12 4.5 -23t8.5 -21h32
q-10 21 -11 44h-34zM314 549q0 -13 -2.5 -23.5t-7.5 -20.5h31q13 20 14 44h-35v0zM257 559h47q0 12 -3 22t-7 19h-37v-41zM210 600q-10 -19 -11 -41h48v41h-37zM292 505q5 10 8.5 20.5t3.5 23.5h-47v-44h35zM199 549q1 -13 4.5 -23.5t8.5 -20.5h35v44h-48v0zM252 447
q-22 0 -41.5 8.5t-34 23t-23 34t-8.5 41.5q0 19 6 35.5t17 30.5q-19 -10 -37 -10q-31 0 -46 18t-15 41q0 32 23 54.5t55 22.5q26 0 42.5 -19t16.5 -42q0 -11 -3 -21.5t-9 -18.5q26 16 57 16q37 0 65 -22q-17 20 -17 46q0 23 17 42t43 19q31 0 54 -22.5t23 -53.5
q0 -23 -15 -41.5t-45 -18.5q-19 0 -38 11q-2 0 -6 2q12 -14 19 -31.5t7 -37.5q0 -22 -8.5 -41.5t-23 -34t-34 -23t-41.5 -8.5z" />
    <glyph glyph-name="plus" unicode="+" horiz-adv-x="498" 
d="M315 262v-152h-132v152h-150v132h150v150h132v-150h152v-132h-152z" />
    <glyph glyph-name="comma" unicode="," horiz-adv-x="240" 
d="M200 30q0 -31 -7.5 -54t-18.5 -38t-23.5 -22.5t-23.5 -7.5h-67l41 92h-61v160h160v-130z" />
    <glyph glyph-name="hyphen" unicode="-" horiz-adv-x="456" 
d="M50 272v142h356v-142h-356z" />
    <glyph glyph-name="hyphen" unicode="&#xad;" horiz-adv-x="456" 
d="M50 272v142h356v-142h-356z" />
    <glyph glyph-name="period" unicode="." horiz-adv-x="240" 
d="M200 0h-160v160h160v-160z" />
    <glyph glyph-name="slash" unicode="/" horiz-adv-x="404" 
d="M264 692h130l-255 -734h-129z" />
    <glyph glyph-name="zero" unicode="0" 
d="M321 477q0 6 -1.5 15.5t-7.5 19t-17 16.5t-29 7q-19 0 -30 -7t-17 -16.5t-8 -19t-2 -15.5v-293q0 -5 3 -14t9.5 -18t17 -15.5t25.5 -6.5t26 6.5t18 15.5t10 18t3 14v293v0zM267 -15q-109 0 -166 53t-57 156v277q0 103 55.5 151t163.5 48q109 0 166 -48t57 -151v-277
q0 -103 -55.5 -156t-163.5 -53z" />
    <glyph glyph-name="two" unicode="2" 
d="M52 160q0 29 19.5 54.5t48 48t62.5 43t62.5 40t48 38.5t19.5 40v59q0 21 -16 33.5t-32 12.5t-32 -12.5t-16 -33.5v-41h-165v66q0 52 20 84t50.5 49t68.5 23t74 6t74 -6t68.5 -23t50.5 -49t20 -84v-129q0 -26 -16 -48.5t-40.5 -42.5t-53.5 -38.5l-56 -35.5t-47.5 -34
t-27.5 -35h242v-145h-426v160z" />
    <glyph glyph-name="three" unicode="3" 
d="M167 391h65q21 1 34 7.5t21 15.5t11 19.5t3 19.5v30q0 21 -16 33.5t-32 12.5t-32 -12.5t-16 -33.5v-31h-165v56q0 52 20 84t50.5 49t68.5 23t74 6t74 -6t68.5 -23t50.5 -49t20 -84q0 -51 -4.5 -81.5t-15 -47.5t-27.5 -25t-42 -15q25 -7 41.5 -17.5t27 -31t15 -54.5
t4.5 -88q0 -52 -20 -84t-50.5 -49.5t-68.5 -23.5t-74 -6t-74 6t-68.5 23.5t-50.5 49.5t-20 84v56h165v-32q0 -21 16 -33t32 -12t32 12t16 33v29q0 9 -5.5 18t-15 16.5t-22 12.5t-25.5 5h-65v138z" />
    <glyph glyph-name="six" unicode="6" 
d="M217 162q0 -21 16 -33t32 -12t32 12t16 33v78q0 21 -16 37.5t-32 16.5q-15 0 -30.5 -10.5t-17.5 -30.5v-91zM52 508q0 52 20 84t50.5 49t68.5 23t74 6t74 -6t68.5 -23t50.5 -49t20 -84v-46h-165v21q0 21 -16 33.5t-32 12.5t-32 -12.5t-16 -33.5v-90q7 11 23.5 17t24.5 6
q36 0 74 -6t68.5 -23.5t50.5 -49.5t20 -84v-105q0 -52 -20 -84t-50.5 -49.5t-68.5 -23.5t-74 -6t-74 6t-68.5 23.5t-50.5 49.5t-20 84v360v0z" />
    <glyph glyph-name="seven" unicode="7" 
d="M481 655v-145q-32 -47 -67 -114.5t-65 -139.5t-51 -140t-26 -116h-176q9 48 28.5 116t46.5 140t59 139.5t65 114.5h-247v145h433z" />
    <glyph glyph-name="eight" unicode="8" 
d="M265 404q29 0 39 18t10 34v47q0 21 -16.5 33.5t-32.5 12.5t-32.5 -12.5t-16.5 -33.5v-47q0 -16 10 -34t39 -18zM265 107q16 0 32 12t16 33v88q0 14 -13.5 27t-34.5 14q-21 -1 -34.5 -14t-13.5 -27v-88q0 -21 16 -33t32 -12zM71 508q0 49 17 80.5t44 49.5t62 25t71 7
t71 -7t62 -25t44 -49.5t17 -80.5q0 -57 -9 -94.5t-40 -54.5q23 -11 36.5 -29.5t20.5 -44.5t9 -60t2 -77q0 -52 -20 -84t-50.5 -49.5t-68.5 -23.5t-74 -6t-74 6t-68.5 23.5t-50.5 49.5t-20 84q0 43 2 77t9 60t20.5 44.5t36.5 29.5q-31 17 -40 54.5t-9 94.5z" />
    <glyph glyph-name="nine" unicode="9" 
d="M313 493q0 21 -16 33t-32 12t-32 -12t-16 -33v-96q0 -21 16 -33t32 -12q15 0 30.5 10.5t17.5 30.5v100zM478 147q0 -52 -20 -84t-50.5 -49t-68.5 -23t-74 -6t-74 6t-68.5 23t-50.5 49t-20 84v51h165v-26q0 -21 16 -33.5t32 -12.5t32 12.5t16 33.5v81q-8 -10 -24 -16.5
t-24 -6.5q-36 0 -74 6t-68.5 23.5t-50.5 49.5t-20 84v114q0 52 20 84t50.5 49.5t68.5 23.5t74 6t74 -6t68.5 -23.5t50.5 -49.5t20 -84v-360v0z" />
    <glyph glyph-name="colon" unicode=":" horiz-adv-x="300" 
d="M230 0h-160v160h160v-160zM230 361h-160v160h160v-160z" />
    <glyph glyph-name="A" unicode="A" horiz-adv-x="594" 
d="M379 364v124q0 7 -5.5 16t-15.5 16.5t-25.5 13t-34.5 5.5q-20 0 -35.5 -5.5t-26 -13t-16 -16.5t-5.5 -16v-124h164zM379 203h-164v-245h-180v548q0 52 20 90.5t55.5 63.5t83 37.5t101.5 12.5q55 0 103 -12.5t84 -37.5t56.5 -63.5t20.5 -90.5v-548h-180v245z" />
    <glyph glyph-name="B" unicode="B" horiz-adv-x="595" 
d="M326 399q9 0 16.5 7t13 17t8 22t2.5 22q0 35 -13.5 49.5t-36.5 14.5h-86v-132h96zM326 119q18 0 33.5 15.5t15.5 51.5q0 28 -11.5 49t-37.5 21h-96v-137h96zM50 692h320q50 0 85.5 -14.5t58 -40t33 -60.5t10.5 -77q0 -26 -2 -51t-10 -47.5t-24 -41.5t-44 -34
q29 -6 47 -22t28.5 -39t14 -50.5t3.5 -55.5q0 -60 -12.5 -99t-37.5 -61.5t-62.5 -31.5t-87.5 -9h-320v734z" />
    <glyph glyph-name="C" unicode="C" horiz-adv-x="586" 
d="M301 -60q-71 0 -121.5 21.5t-82.5 59t-47 87.5t-15 107v221q0 57 15 106.5t47.5 87t83 59t121.5 21.5q81 0 130.5 -25t77.5 -65t38.5 -88.5t12.5 -95.5h-180q0 10 -2 29t-9.5 38t-22.5 32.5t-42 13.5q-23 0 -39.5 -11t-28 -29.5t-17 -42.5t-5.5 -50v-180q0 -27 5.5 -51
t17 -43t28 -30t39.5 -11q27 0 42 14t22.5 32.5t9.5 37.5t2 30h180q-2 -47 -12.5 -96t-38.5 -88.5t-78 -65t-131 -25.5z" />
    <glyph glyph-name="D" unicode="D" horiz-adv-x="659" 
d="M230 119h106q30 0 49.5 25.5t31 59.5t15.5 69t4 53t-2.5 52t-12.5 68t-30 59.5t-55 25.5h-106v-412zM50 692h290q91 0 146.5 -30t85.5 -80.5t40 -117t12 -138.5v-2q-2 -72 -12 -138.5t-40 -117t-85.5 -80.5t-146.5 -30h-290v734z" />
    <glyph glyph-name="E" unicode="E" horiz-adv-x="511" 
d="M50 692h446v-161h-266v-125h266v-161h-266v-126h266v-161h-446v734z" />
    <glyph glyph-name="F" unicode="F" horiz-adv-x="511" 
d="M230 -42h-180v734h436v-161h-256v-141h256v-151h-256v-281z" />
    <glyph glyph-name="G" unicode="G" horiz-adv-x="611" 
d="M576 380v-198q0 -47 -10.5 -90.5t-39 -77.5t-80 -54t-133.5 -20q-75 0 -127.5 21.5t-86 59t-49 87.5t-15.5 107v221q0 57 15.5 106.5t49.5 87t86.5 59t126.5 21.5q82 0 132 -20t78.5 -54t39 -77.5t12.5 -90.5h-180q0 10 -2 24t-10 27t-24.5 21.5t-45.5 8.5
q-24 0 -42.5 -11t-31 -29.5t-18.5 -42.5t-6 -50v-180q0 -27 6 -51t18.5 -43t31 -30t42.5 -11q29 0 45.5 8.5t25 21.5t10.5 26.5t2 24.5v37h-83v161h263z" />
    <glyph glyph-name="H" unicode="H" horiz-adv-x="635" 
d="M585 -42h-180v287h-175v-287h-180v734h180v-286h175v286h180v-734z" />
    <glyph glyph-name="I" unicode="I" horiz-adv-x="280" 
d="M50 692h180v-734h-180v734z" />
    <glyph glyph-name="J" unicode="J" horiz-adv-x="569" 
d="M205 235v-80q0 -54 67 -54q33 0 50 14.5t17 39.5v537h180v-585q0 -75 -62.5 -121t-185.5 -46q-47 0 -91 7.5t-78.5 26.5t-55.5 51t-21 82v128h180z" />
    <glyph glyph-name="K" unicode="K" horiz-adv-x="558" 
d="M50 692h180v-282l131 282h179l-152 -331l160 -403h-194l-124 311v-311h-180v734z" />
    <glyph glyph-name="L" unicode="L" horiz-adv-x="510" 
d="M500 119v-161h-450v734h180v-573h270z" />
    <glyph glyph-name="N" unicode="N" horiz-adv-x="644" 
d="M45 692h190l184 -391v391h180v-734h-190l-184 382v-382h-180v734z" />
    <glyph glyph-name="P" unicode="P" horiz-adv-x="593" 
d="M230 315h78q24 0 37.5 13t21 30.5t9.5 35.5t2 28t-2 28.5t-9.5 36.5t-21.5 31t-37 13h-78v-216zM302 692q91 0 142 -22t76 -59t30.5 -85.5t7.5 -101.5v-2q-2 -53 -7.5 -101.5t-30.5 -85.5t-76 -59t-142 -22h-72v-196h-180v734h252z" />
    <glyph glyph-name="Q" unicode="Q" horiz-adv-x="600" 
d="M299 101q38 0 60.5 16.5t22.5 32.5v350q0 16 -22 32.5t-59 16.5q-38 0 -60.5 -16.5t-22.5 -32.5v-348q0 -7 5.5 -16t15.5 -16.5t25 -13t35 -5.5zM492 -194q-41 0 -76 8t-61 24.5t-42 42t-19 59.5q-41 1 -87 11t-84 32.5t-63 59.5t-25 91v372q0 56 25.5 95t64.5 63
t85.5 35t87.5 11q42 0 88.5 -11t86.5 -35t66 -63t26 -95v-372q0 -63 -32 -102.5t-79 -60.5q1 -28 15.5 -40t43.5 -12h32v-113h-53z" />
    <glyph glyph-name="R" unicode="R" horiz-adv-x="595" 
d="M329 389q9 0 16.5 8.5t13 21t8 26t2.5 23.5q0 34 -13.5 48.5t-36.5 14.5h-89v-142h99zM50 692h308q61 0 100.5 -15.5t62 -42t31 -61t8.5 -73.5q0 -26 -2.5 -52t-10.5 -50t-24 -45t-43 -37q30 -16 46.5 -35t24.5 -41t9.5 -47.5t1.5 -53.5v-181h-194v211q0 33 -9.5 55
t-35.5 22h-93v-288h-180v734z" />
    <glyph glyph-name="S" unicode="S" horiz-adv-x="554" 
d="M278 549q-18 0 -31.5 -5.5t-22.5 -13t-14 -16.5t-5 -16v-24q0 -23 24 -37t60 -27l78 -28.5t78 -40t60 -61.5t24 -94v-42q0 -52 -19.5 -90.5t-53.5 -63.5t-79.5 -37.5t-97.5 -12.5q-53 0 -99 12.5t-80.5 37.5t-54.5 63.5t-20 90.5v55h180v-47q0 -7 4.5 -16t13.5 -16.5
t22.5 -13t30.5 -5.5q18 0 31.5 5.5t22.5 13t14 16.5t5 16v24q0 23 -24 37t-60 27l-78 28.5t-78 40t-60 61.5t-24 94v42q0 52 19.5 90.5t53.5 63.5t79.5 37.5t97.5 12.5q53 0 99 -12.5t80.5 -37.5t54.5 -63.5t20 -90.5v-55h-180v47q0 16 -18.5 33.5t-52.5 17.5z" />
    <glyph glyph-name="T" unicode="T" horiz-adv-x="532" 
d="M356 531v-573h-180v573h-166v161h512v-161h-166z" />
    <glyph glyph-name="U" unicode="U" horiz-adv-x="614" 
d="M225 162q0 -7 5.5 -16t15.5 -16.5t25 -13t35 -5.5t35.5 5.5t26 13t16 16.5t5.5 16v530h180v-548q0 -52 -20 -90.5t-55.5 -63.5t-83 -37.5t-101.5 -12.5q-55 0 -103 12.5t-84 37.5t-56.5 63.5t-20.5 90.5v548h180v-530v0z" />
    <glyph glyph-name="V" unicode="V" horiz-adv-x="630" 
d="M314 177l120 515h186l-182 -734h-246l-182 734h186z" />
    <glyph glyph-name="W" unicode="W" horiz-adv-x="781" 
d="M396 47q-15 -29 -30 -49t-34.5 -33t-45 -19t-61.5 -6q-31 0 -63 10.5t-58 31.5t-42.5 52.5t-16.5 73.5v584h180v-541q0 -16 12.5 -25t24.5 -9q11 0 25 9t14 25v541h180v-541q0 -16 13 -25t25 -9t24.5 9t12.5 25v541h180v-584q0 -44 -16.5 -76t-42 -52.5t-58 -30
t-63.5 -9.5q-34 0 -58 6t-42 19t-32 33t-28 49z" />
    <glyph glyph-name="X" unicode="X" horiz-adv-x="608" 
d="M10 -42l163 367l-163 367h193l100 -225l101 225h194l-165 -367l165 -367h-194l-101 210l-100 -210h-193z" />
    <glyph glyph-name="Y" unicode="Y" horiz-adv-x="576" 
d="M566 692l-188 -427v-307h-180v307l-188 427h185l93 -236l93 236h185z" />
    <glyph glyph-name="exclam" unicode="!" horiz-adv-x="328" 
d="M84 118h160v-160h-160v160zM70 692h188l-14 -519h-160z" />
    <glyph glyph-name="asciicircum" unicode="^" horiz-adv-x="504" 
d="M454 329h-140l-62 139l-63 -139h-139l137 326h130z" />
    <glyph glyph-name="underscore" unicode="_" horiz-adv-x="500" 
d="M0 -41h500v-82h-500v82z" />
    <glyph glyph-name="grave" unicode="`" horiz-adv-x="306" 
d="M77 704l194 -92l-25 -62l-212 56z" />
    <glyph glyph-name="a" unicode="a" horiz-adv-x="453" 
d="M266 209q-18 -5 -33.5 -7t-27.5 -7t-19 -16t-7 -34q0 -34 33 -34q18 0 36 12t18 36v50zM38 362q0 90 52.5 132t140.5 42q36 0 69.5 -7t59.5 -22t42 -39t16 -57v-335q0 -9 2 -20t5 -22t6 -20.5t5 -13.5h-151q-7 9 -11.5 21t-7.5 23q-21 -25 -52.5 -42t-66.5 -17
q-39 0 -63 13.5t-37 35.5t-17.5 49t-4.5 53q0 46 10 74.5t27 44.5t38.5 22.5t43.5 9t43.5 3.5t38.5 6q14 5 27 15t13 24v47q0 21 -13 31t-24 10t-24 -10t-13 -31v-64h-154v44z" />
    <glyph glyph-name="b" unicode="b" horiz-adv-x="465" 
d="M238 407q-14 0 -26 -9t-12 -27v-221q0 -14 10.5 -25t27.5 -11q21 0 31.5 11t10.5 25v221q0 18 -12.5 27t-29.5 9zM201 655v-167q15 26 43.5 37t57.5 11q40 0 66.5 -15t42.5 -39.5t22.5 -57t6.5 -67.5v-202q0 -33 -8.5 -63t-25.5 -53.5t-42.5 -37t-59.5 -13.5
q-28 0 -54.5 12.5t-47.5 40.5v-41h-162v655h161z" />
    <glyph glyph-name="c" unicode="c" horiz-adv-x="424" 
d="M405 92q-18 -51 -65.5 -79t-120.5 -28q-55 0 -92.5 20t-60 53.5t-32 78t-9.5 92.5v80q0 45 9 86t31 72.5t59.5 50t94.5 18.5q54 0 90.5 -13.5t58.5 -39t32.5 -62.5t12.5 -84h-160v42q0 18 -8.5 28.5t-25.5 10.5q-16 0 -25 -10.5t-9 -28.5v-235q0 -17 9.5 -28t24.5 -11
q16 0 25 11t9 28v51h161q0 -79 -9 -103z" />
    <glyph glyph-name="d" unicode="d" horiz-adv-x="465" 
d="M227 407q-17 0 -29.5 -9t-12.5 -27v-221q0 -14 10.5 -25t31.5 -11q17 0 27.5 11t10.5 25v221q0 18 -12 27t-26 9zM425 655v-655h-162v41q-21 -28 -47.5 -40.5t-54.5 -12.5q-34 0 -59.5 13.5t-42.5 37t-25.5 53.5t-8.5 63v202q0 35 6.5 67.5t22.5 57t42.5 39.5t66.5 15
q29 0 57.5 -11t43.5 -37v167h161z" />
    <glyph glyph-name="e" unicode="e" horiz-adv-x="447" 
d="M262 385q0 12 -11 24.5t-26 12.5q-18 0 -29 -12.5t-11 -24.5v-66h77v66zM422 184q0 -94 -47 -146.5t-146 -52.5q-104 0 -154 50.5t-50 158.5v124q0 49 10 89.5t33.5 69t62.5 44t97 15.5q51 0 88 -15.5t60.5 -40.5t34.5 -55.5t11 -61.5v-135h-237v-96q0 -17 14.5 -25
t26.5 -8q13 0 26 8t13 25v52h157v0z" />
    <glyph glyph-name="f" unicode="f" horiz-adv-x="359" 
d="M88 521v24q0 37 15 65t41.5 46t63 27t78.5 9h53v-113h-32q-29 0 -44 -10.5t-15 -39.5v-8h91v-120h-91v-401h-160v401h-68v120h68z" />
    <glyph glyph-name="g" unicode="g" horiz-adv-x="467" 
d="M187 214q0 -15 14 -25.5t28 -10.5t26 10.5t12 25.5v157q0 14 -10.5 25t-27.5 11q-21 0 -31.5 -11t-10.5 -25v-157v0zM427 -57q0 -41 -18 -70.5t-47 -48t-65 -27.5t-72 -9q-35 0 -69 9t-61 27.5t-43.5 48t-16.5 70.5v57h150q0 -38 7 -59t33 -21q23 0 32.5 10.5t9.5 25.5
v118q-20 -17 -46.5 -24t-52.5 -7t-51 11.5t-45 30t-32.5 43t-12.5 50.5v188q0 33 8.5 63t25.5 53.5t42.5 37t59.5 13.5q28 0 54.5 -12.5t47.5 -40.5v41h162v-578z" />
    <glyph glyph-name="h" unicode="h" horiz-adv-x="482" 
d="M287 0v354q0 18 -14.5 27t-25.5 9t-26.5 -9.5t-15.5 -26.5v-354h-160v655h153v-183q20 28 51.5 43.5t68.5 15.5q27 0 50.5 -8.5t41 -23.5t27.5 -35.5t10 -44.5v-419h-160z" />
    <glyph glyph-name="i" unicode="i" horiz-adv-x="240" 
d="M200 557h-160v88h160v-88zM200 0h-160v521h160v-521z" />
    <glyph glyph-name="j" unicode="j" horiz-adv-x="239" 
d="M39 557v88h159v-88h-159zM-52 -204v113h32q29 0 44 12.5t15 41.5v558h160v-578q0 -38 -15 -65.5t-41.5 -45.5t-63 -27t-78.5 -9h-53z" />
    <glyph glyph-name="k" unicode="k" horiz-adv-x="443" 
d="M344 352l89 -352h-158l-63 240v-240h-167v655h160v-265l63 131h158z" />
    <glyph glyph-name="l" unicode="l" horiz-adv-x="245" 
d="M205 0h-160v655h160v-655z" />
    <glyph glyph-name="m" unicode="m" horiz-adv-x="719" 
d="M524 0v354q0 18 -15 27t-26 9t-26 -9.5t-15 -26.5v-354h-160v354q0 18 -14.5 27t-25.5 9t-26.5 -9.5t-15.5 -26.5v-354h-160v521h153v-49q20 28 51.5 43.5t68.5 15.5q39 0 69.5 -17.5t45.5 -45.5q20 27 54.5 45t71.5 18q27 0 50.5 -8.5t41.5 -23.5t28 -35.5t10 -44.5
v-419h-160z" />
    <glyph glyph-name="n" unicode="n" horiz-adv-x="477" 
d="M282 0v345q0 18 -14.5 27t-25.5 9t-26.5 -9.5t-15.5 -26.5v-345h-160v521h153v-49q20 28 51.5 43.5t68.5 15.5q27 0 50.5 -8.5t41 -23.5t27.5 -35.5t10 -44.5v-419h-160z" />
    <glyph glyph-name="o" unicode="o" horiz-adv-x="438" 
d="M219 104q11 0 22.5 5.5t11.5 22.5v257q0 17 -11.5 22.5t-22.5 5.5t-22.5 -5.5t-11.5 -22.5v-257q0 -17 11.5 -22.5t22.5 -5.5zM219 536q48 0 84 -13.5t60.5 -36.5t37 -53.5t12.5 -65.5v-213q0 -35 -12.5 -65.5t-37 -53.5t-60.5 -36.5t-84 -13.5t-84 13.5t-60.5 36.5
t-37 53.5t-12.5 65.5v213q0 35 12.5 65.5t37 53.5t60.5 36.5t84 13.5z" />
    <glyph glyph-name="p" unicode="p" horiz-adv-x="465" 
d="M238 114q17 0 29.5 9t12.5 27v221q0 14 -10.5 25t-31.5 11q-17 0 -27.5 -11t-10.5 -25v-221q0 -18 12 -27t26 -9zM40 -164v685h162v-41q21 28 47.5 40.5t54.5 12.5q34 0 59.5 -13.5t42.5 -37t25.5 -53.5t8.5 -63v-202q0 -35 -6.5 -67.5t-22.5 -57t-42.5 -39.5t-66.5 -15
q-29 0 -57.5 11t-43.5 37v-197h-161z" />
    <glyph glyph-name="q" unicode="q" horiz-adv-x="465" 
d="M227 114q14 0 26 9t12 27v221q0 14 -10.5 25t-27.5 11q-21 0 -31.5 -11t-10.5 -25v-221q0 -18 12.5 -27t29.5 -9zM264 -164v197q-15 -26 -43.5 -37t-57.5 -11q-40 0 -66.5 15t-42.5 39.5t-22.5 57t-6.5 67.5v202q0 33 8.5 63t25.5 53.5t42.5 37t59.5 13.5
q28 0 54.5 -12.5t47.5 -40.5v41h162v-685h-161z" />
    <glyph glyph-name="r" unicode="r" horiz-adv-x="391" 
d="M366 247h-125v134q0 8 -7.5 12.5t-13.5 4.5q-5 0 -12.5 -4.5t-7.5 -12.5v-381h-160v521h139v-38q20 28 39.5 40t56.5 12q27 0 44.5 -9.5t28 -25t14.5 -36.5t4 -45v-172z" />
    <glyph glyph-name="s" unicode="s" horiz-adv-x="455" 
d="M277 338q0 14 -1 29t-5.5 27t-14.5 19.5t-28 7.5q-20 0 -32 -12t-12 -32q0 -22 18 -32.5t45.5 -18l59.5 -16.5t59.5 -26t45.5 -46.5t18 -78.5q0 -46 -14 -79t-39.5 -54t-61 -31t-79.5 -10q-105 0 -156.5 43t-51.5 144v7h150q0 -17 2 -31.5t7.5 -25.5t15 -17.5t25.5 -6.5
q25 0 35.5 10.5t10.5 40.5q0 22 -18.5 32.5t-46 17l-60 14.5t-60 24.5t-46 46.5t-18.5 82q0 38 12.5 69.5t39 54t66 34.5t93.5 12q39 0 73.5 -9.5t60.5 -31t41.5 -55t15.5 -81.5v-21h-150v0z" />
    <glyph glyph-name="t" unicode="t" horiz-adv-x="417" 
d="M222 393v-257q0 -9 6 -13.5t12 -4.5q5 0 11.5 4.5t6.5 13.5v136h137v-142q0 -36 -13.5 -63t-36.5 -45.5t-52.5 -27.5t-62.5 -9q-37 0 -67.5 9t-53 27.5t-35 45.5t-12.5 63v263h-55v128h55v95h160v-95h173v-128h-173z" />
    <glyph glyph-name="u" unicode="u" horiz-adv-x="477" 
d="M195 521v-354q0 -18 15 -27t26 -9t26 9.5t15 26.5v354h160v-521h-153v49q-20 -28 -51.5 -43.5t-68.5 -15.5q-27 0 -50.5 8.5t-41 23.5t-27.5 35.5t-10 44.5v419h160z" />
    <glyph glyph-name="v" unicode="v" horiz-adv-x="474" 
d="M237 187l71 334h156l-115 -521h-224l-115 521h156z" />
    <glyph glyph-name="w" unicode="w" horiz-adv-x="714" 
d="M195 521v-342q0 -18 15 -27t26 -9t26 9.5t15 26.5v342h160v-342q0 -18 15 -27t26 -9t26 9.5t15 26.5v342h160v-373q0 -40 -13 -70.5t-35 -51t-51 -31t-61 -10.5q-26 0 -50.5 4.5t-45.5 15.5t-38 29t-28 46q-12 -28 -28 -46t-36.5 -29t-45 -15.5t-52.5 -4.5
q-32 0 -61 10.5t-51 31t-35 51t-13 70.5v373h160z" />
    <glyph glyph-name="x" unicode="x" horiz-adv-x="446" 
d="M361 275l75 -275h-171l-42 180l-42 -180h-171l84 275l-84 246h171l42 -177l42 177h171z" />
    <glyph glyph-name="y" unicode="y" horiz-adv-x="477" 
d="M437 521v-563q0 -36 -15 -66t-41.5 -51t-62.5 -33t-79 -12q-93 0 -148.5 35t-55.5 112v57h160v-36q0 -16 15 -26t26 -10t26 9.5t15 26.5v120q-8 -8 -20 -16.5t-26 -16t-29 -12t-28 -4.5q-30 0 -55 10t-44 29t-29.5 45.5t-10.5 58.5v343h160v-307q0 -18 15 -27t26 -9
t26 9.5t15 26.5v307h160z" />
    <glyph glyph-name="z" unicode="z" horiz-adv-x="421" 
d="M386 521v-117l-166 -287h166v-117h-351v117l167 287h-167v117h351z" />
    <glyph glyph-name="braceleft" unicode="{" horiz-adv-x="339" 
d="M314 -150q-51 2 -95.5 15.5t-77.5 39t-52 62.5t-19 87v112q0 18 -19.5 28.5t-40.5 10.5v149q21 0 40.5 11.5t19.5 29.5v111q0 50 18.5 87.5t51.5 63t77.5 38.5t96.5 15v-131h-1q-20 0 -34 -6.5t-23 -14.5t-13.5 -17t-4.5 -13v-164q0 -12 -5.5 -23.5t-14.5 -22.5
t-19.5 -20.5t-20.5 -17.5q10 -8 20.5 -17.5t19.5 -20.5t14.5 -23t5.5 -24v-163q0 -5 4 -13.5t13 -16.5t22.5 -14.5t33.5 -6.5h3v-131z" />
    <glyph glyph-name="bar" unicode="|" horiz-adv-x="220" 
d="M170 -133h-120v825h120v-825z" />
    <glyph glyph-name="braceright" unicode="}" horiz-adv-x="339" 
d="M25 -19h3q19 0 33 6.5t23 14.5t13 16.5t4 13.5v163q0 12 5.5 24t14.5 23t19.5 20.5t20.5 17.5q-10 8 -20.5 17.5t-19.5 20.5t-14.5 22.5t-5.5 23.5v164q0 4 -4.5 13t-13.5 17t-23 14.5t-34 6.5h-1v131q52 -2 96.5 -15t77.5 -38.5t51.5 -63t18.5 -87.5v-111
q0 -18 19.5 -29.5t40.5 -11.5v-149q-21 0 -40.5 -10.5t-19.5 -28.5v-112q0 -50 -19 -87t-52 -62.5t-77.5 -39t-95.5 -15.5v131z" />
    <glyph glyph-name="asciitilde" unicode="~" horiz-adv-x="498" 
d="M448 314q-52 -70 -119 -70q-26 0 -46 8t-38.5 17.5t-36.5 17.5t-39 8q-15 0 -25.5 -4t-18.5 -10t-13.5 -12t-10.5 -10l-51 81q52 70 119 70q33 0 55 -8t39 -17.5l32 -17.5t34 -8q15 0 25.5 4t18.5 10t13.5 12t10.5 10z" />
    <glyph glyph-name="dollar" unicode="$" 
d="M314 602q29 -6 55 -19t45.5 -34t31 -50.5t11.5 -68.5v-23h-131q0 42 -14 63.5t-47 21.5q-22 0 -40 -9t-18 -35t18.5 -39t46.5 -22.5t61 -19t61 -27t46.5 -47t18.5 -79.5q0 -40 -12 -69.5t-32 -50t-46 -32t-55 -16.5v-46h-100v46q-65 12 -103.5 58.5t-38.5 132.5v5h131
q0 -17 3.5 -32.5t11 -28t19 -20t28.5 -7.5q31 0 48 15t17 45q0 19 -19.5 29t-48 18l-62.5 17t-62.5 27.5t-48 49.5t-19.5 82q0 35 12 63t32.5 48.5t46.5 33.5t53 19v54h100v-53z" />
    <glyph glyph-name="exclamdown" unicode="&#xa1;" horiz-adv-x="328" 
d="M244 532h-160v160h160v-160zM258 -42h-188l14 519h160z" />
    <glyph glyph-name="cent" unicode="&#xa2;" 
d="M316 591q39 -6 65 -22.5t42.5 -41t24.5 -58t10 -73.5h-160v42q0 18 -8.5 28.5t-25.5 10.5q-16 0 -25 -10.5t-9 -28.5v-219q0 -17 9.5 -28t24.5 -11q16 0 25 11t9 28v51h161q0 -79 -9 -103q-31 -85 -135 -103v-64h-100v65q-41 9 -68.5 31t-44.5 54t-24.5 71.5t-7.5 82.5
v64q0 39 7 76t23.5 67t44.5 51t71 29v64h100v-64z" />
    <glyph glyph-name="sterling" unicode="&#xa3;" 
d="M15 373h67v135q0 52 20 84t50.5 49t68.5 23t74 6t74 -6t68.5 -23t50.5 -49t20 -84v-46h-165v21q0 21 -16 33.5t-32 12.5t-32 -12.5t-16 -33.5v-110h121v-82h-121v-52q0 -23 -9.5 -48.5t-30.5 -45.5h301v-145h-481v145q21 12 32 23.5t16 23t6 23.5t1 24v52h-67v82z" />
    <glyph glyph-name="currency" unicode="&#xa4;" 
d="M394 239h-175q0 -22 3.5 -42t11.5 -35.5t20.5 -24.5t32.5 -9q19 0 30.5 5.5t18.5 15.5t11 23t8 28h125q-2 -42 -12 -80.5t-32.5 -68.5t-58.5 -48t-90 -18q-61 0 -104.5 19.5t-71 53.5t-40 78.5t-12.5 95.5v7h-59l20 72h39v33h-59l20 72h39v3q0 50 13 95.5t40.5 80
t70.5 55t104 20.5q67 0 106 -18t56.5 -48t17 -69t-12.5 -81h-100q0 10 -1.5 22.5t-8 23.5t-20 19t-37.5 8q-19 0 -32 -9.5t-20.5 -25t-11 -35.5t-4.5 -41h225l-20 -72h-205v-33h195z" />
    <glyph glyph-name="yen" unicode="&#xa5;" 
d="M15 339h124l-136 316h183l79 -199l78 199h184l-136 -316h124v-82h-160v-40h160v-82h-160v-135h-180v135h-160v82h160v40h-160v82z" />
    <glyph glyph-name="section" unicode="&#xa7;" horiz-adv-x="499" 
d="M145 296q0 -23 15 -37t39.5 -23t54.5 -15.5t60 -16.5q16 6 28 19.5t12 38.5q0 23 -15 36.5t-39.5 22.5t-55 16t-60.5 17q-16 -6 -27.5 -20t-11.5 -38zM299 483v39q0 34 -9.5 55t-39.5 21q-32 0 -41.5 -19t-9.5 -64q0 -22 20.5 -32.5t51 -18l66 -16.5t66 -28.5t51 -53.5
t20.5 -92q0 -38 -19 -70t-48 -55q17 -18 26.5 -44t9.5 -62q0 -54 -16.5 -91t-44 -59.5t-63 -32t-72.5 -9.5q-41 0 -75.5 11t-60 33.5t-40 57.5t-14.5 83v39h143v-39q0 -34 9.5 -55t39.5 -21q32 0 41.5 19t9.5 64q0 22 -20.5 32.5t-51 18l-66 16.5t-66 28.5t-51 53.5
t-20.5 92q0 38 18.5 69.5t47.5 54.5q-16 19 -25.5 45t-9.5 62q0 54 16.5 90.5t44 59t63 32.5t72.5 10q40 0 75 -11t60.5 -33.5t40 -57.5t14.5 -83v-39h-143z" />
    <glyph glyph-name="dieresis" unicode="&#xa8;" horiz-adv-x="431" 
d="M396 559h-133v133h133v-133zM168 559h-133v133h133v-133z" />
    <glyph glyph-name="copyright" unicode="&#xa9;" horiz-adv-x="784" 
d="M392 63q-51 0 -87 14.5t-59 40t-33.5 60t-10.5 73.5v151q0 39 10.5 73t33.5 59.5t59 40.5t87 15q56 0 90.5 -14t53.5 -37t26 -53t9 -62h-123q0 7 -1 16.5t-6.5 18.5t-17 15t-31.5 6q-17 0 -27.5 -7.5t-17 -20.5t-9 -29t-2.5 -34v-124q0 -36 11.5 -64t44.5 -28
q20 0 31.5 6t17 14.5t7 18t1.5 17.5h123q-2 -32 -9 -62t-26.5 -53t-54 -37t-90.5 -14zM80 325q0 -65 24.5 -121.5t66.5 -99t99 -67t122 -24.5q64 0 121 24.5t99.5 67t67 99t24.5 121.5t-24.5 122t-67 99t-99.5 66.5t-121 24.5q-65 0 -122 -24.5t-99 -66.5t-66.5 -99
t-24.5 -122zM25 325q0 76 29 143t78.5 116.5t116.5 78.5t143 29t143 -29t116.5 -78.5t78.5 -116.5t29 -143t-29 -143t-78.5 -116.5t-116.5 -78.5t-143 -29t-143 29t-116.5 78.5t-78.5 116.5t-29 143z" />
    <glyph glyph-name="ordfeminine" unicode="&#xaa;" horiz-adv-x="318" 
d="M183.585 486.074q-11.8818 -3.30273 -22.1133 -4.62402t-18.1523 -4.62402q-7.9209 -3.30371 -12.542 -10.5703q-4.62012 -7.26758 -4.62012 -22.4629q0 -22.4609 21.7832 -22.4609q11.8818 0 23.7627 7.92773q11.8818 7.92773 11.8818 23.7832v33.0312zM33.084 587.153
q0 59.458 34.6543 87.2051q34.6553 27.7471 92.7441 27.7471q23.7627 0 45.876 -4.625q22.1133 -4.62402 39.2764 -14.5332q17.1621 -9.91016 27.7236 -25.7656t10.5615 -37.6562v-221.316q0 -5.94531 1.32031 -13.2129t3.2998 -14.5342q1.98047 -7.2666 3.96094 -13.543
t3.30078 -8.91895h-99.6748q-4.62012 5.94531 -7.59082 13.873t-4.95117 15.1953q-13.8613 -16.5156 -34.6543 -27.7471t-43.8965 -11.2314q-25.7441 0 -41.5859 8.91895q-15.8428 8.91895 -24.4238 23.4531t-11.5518 32.3721q-2.9707 17.8369 -2.9707 35.0137
q0 30.3896 6.60156 49.2178q6.60059 18.8291 17.8223 29.3994t25.4141 14.8643q14.1914 4.29395 28.7139 5.94531t28.7139 2.3125q14.1924 0.661133 25.4141 3.96387q9.24121 3.30273 17.8223 9.91016q8.58105 6.60547 8.58105 15.8555v31.0498q0 13.874 -8.58105 20.4795
q-8.58105 6.60742 -15.8418 6.60742q-7.26172 0 -15.8428 -6.60742q-8.58105 -6.60547 -8.58105 -20.4795v-42.2812h-101.654v29.0684z" />
    <glyph glyph-name="guillemotleft" unicode="&#xab;" horiz-adv-x="448" 
d="M343 249l70 -199h-130l-70 201l70 199h130zM155 249l70 -199h-130l-70 201l70 199h130z" />
    <glyph glyph-name="registered" unicode="&#xae;" horiz-adv-x="784" 
d="M411 366q6 0 10.5 5t8 12t5 14.5t1.5 13.5q0 20 -8.5 32t-22.5 12h-69v-89h75zM219 561h117q61 0 103.5 -2t69.5 -13t39 -35t12 -69q0 -17 -1.5 -34t-6.5 -33t-15 -30t-27 -24q37 -20 47 -45t10 -60v-112h-125v131q0 17 -7 29.5t-24 12.5h-75v-173h-117v457zM80 325
q0 -65 24.5 -121.5t66.5 -99t99 -67t122 -24.5q64 0 121 24.5t99.5 67t67 99t24.5 121.5t-24.5 122t-67 99t-99.5 66.5t-121 24.5q-65 0 -122 -24.5t-99 -66.5t-66.5 -99t-24.5 -122zM25 325q0 76 29 143t78.5 116.5t116.5 78.5t143 29t143 -29t116.5 -78.5t78.5 -116.5
t29 -143t-29 -143t-78.5 -116.5t-116.5 -78.5t-143 -29t-143 29t-116.5 78.5t-78.5 116.5t-29 143z" />
    <glyph glyph-name="degree" unicode="&#xb0;" 
d="M210 556q0 -23 16 -39t39 -16t39.5 16t16.5 39t-16.5 39.5t-39.5 16.5t-39 -16.5t-16 -39.5zM152 556q0 24 9 44.5t24.5 36t36 24.5t43.5 9q24 0 44.5 -9t36 -24.5t24.5 -36t9 -44.5q0 -23 -9 -43.5t-24.5 -36t-36 -24.5t-44.5 -9q-23 0 -43.5 9t-36 24.5t-24.5 36
t-9 43.5z" />
    <glyph glyph-name="paragraph" unicode="&#xb6;" horiz-adv-x="517" 
d="M25 508q0 32 9.5 64.5t29 59t48.5 43.5t67 17h313v-121h-51v-705h-97v705h-68v-705h-97v458q-38 0 -67 17t-48.5 43.5t-29 59t-9.5 64.5z" />
    <glyph glyph-name="cedilla" unicode="&#xb8;" horiz-adv-x="242" 
d="M171 0q14 -20 25 -39.5t11 -51.5q0 -11 -4.5 -22t-13 -20t-19.5 -14.5t-23 -5.5h-112v77h68q8 0 15.5 11.5t7.5 28.5q0 19 -11 36h56z" />
    <glyph glyph-name="ordmasculine" unicode="&#xba;" 
d="M265.494 410.662q7.25781 0 14.8447 3.63184q7.58789 3.63086 7.58789 14.8545v169.676q0 11.2236 -7.58789 14.8555q-7.58691 3.63086 -14.8447 3.63086t-14.8457 -3.63086q-7.58691 -3.63184 -7.58691 -14.8555v-169.676q0 -11.2236 7.58691 -14.8545
q7.58789 -3.63184 14.8457 -3.63184zM265.494 695.877q31.6699 0 55.4219 -8.91309q23.7529 -8.91309 39.918 -24.0986q16.1641 -15.1846 24.4121 -35.3213q8.24707 -20.1367 8.24707 -43.2441v-140.626q0 -23.1084 -8.24707 -43.2441q-8.24805 -20.1367 -24.4121 -35.3223
q-16.165 -15.1846 -39.918 -24.0977q-23.752 -8.91309 -55.4219 -8.91309t-55.4229 8.91309q-23.752 8.91309 -39.917 24.0977q-16.165 15.1855 -24.4121 35.3223q-8.24707 20.1357 -8.24707 43.2441v140.626q0 23.1074 8.24707 43.2441t24.4121 35.3213
q16.165 15.1855 39.917 24.0986q23.7529 8.91309 55.4229 8.91309z" />
    <glyph glyph-name="guillemotright" unicode="&#xbb;" horiz-adv-x="448" 
d="M223 450h130l70 -199l-70 -201h-130l70 199zM35 450h130l70 -199l-70 -201h-130l70 199z" />
    <glyph glyph-name="questiondown" unicode="&#xbf;" horiz-adv-x="514" 
d="M205 692h160v-160h-160v160zM365 313h-67q-48 0 -68 -24t-20 -57v-81q0 -20 13.5 -32t33.5 -12t33.5 12t13.5 32v81h170v-124q0 -54 -20 -87t-51.5 -51t-70 -24t-75.5 -6t-75.5 6t-70 24t-51.5 51t-20 87v198q0 40 15.5 71t43 52.5t65 32.5t81.5 11h120v-160z" />
    <glyph glyph-name="Agrave" unicode="&#xc0;" horiz-adv-x="594" 
d="M379 364v124q0 7 -5.5 16t-15.5 16.5t-25.5 13t-34.5 5.5q-20 0 -35.5 -5.5t-26 -13t-16 -16.5t-5.5 -16v-124h164zM379 203h-164v-245h-180v548q0 52 20 90.5t55.5 63.5t83 37.5t101.5 12.5q55 0 103 -12.5t84 -37.5t56.5 -63.5t20.5 -90.5v-548h-180v245zM193 869
l194 -92l-25 -62l-212 56z" />
    <glyph glyph-name="Aacute" unicode="&#xc1;" horiz-adv-x="594" 
d="M379 364v124q0 7 -5.5 16t-15.5 16.5t-25.5 13t-34.5 5.5q-20 0 -35.5 -5.5t-26 -13t-16 -16.5t-5.5 -16v-124h164zM379 203h-164v-245h-180v548q0 52 20 90.5t55.5 63.5t83 37.5t101.5 12.5q55 0 103 -12.5t84 -37.5t56.5 -63.5t20.5 -90.5v-548h-180v245zM461 776
l-212 -56l-25 62l194 92z" />
    <glyph glyph-name="germandbls" unicode="&#xdf;" horiz-adv-x="555" 
d="M235 425h17q26 0 42.5 6.5t25.5 15.5t12.5 20t3.5 20v45q0 21 -16 34t-32 13h-29q-29 0 -44 -10.5t-15 -39.5v-529h-160v545q0 37 15 65t41.5 46t63 27t78.5 9h50q36 0 70.5 -5.5t62 -23t44 -49t16.5 -83.5q0 -56 -7.5 -88.5t-41.5 -51.5q52 -26 75 -74t23 -120
q0 -55 -14.5 -92.5t-38.5 -61t-54.5 -33.5t-61.5 -10h-126v127h82q10 0 21.5 3t22 12t17.5 24.5t7 39.5q0 30 -6.5 54t-22 40.5t-41 25.5t-63.5 9h-17v90z" />
    <glyph glyph-name="iacute" unicode="&#xed;" horiz-adv-x="221" 
d="M190 0h-160v521h160v-521zM245 606l-212 -56l-25 62l194 92z" />
    <glyph glyph-name="divide" unicode="&#xf7;" 
d="M333 466h-136v136h136v-136zM333 54h-136v136h136v-136zM34 257v142h462v-142h-462z" />
    <glyph glyph-name="dotlessi" unicode="&#x131;" horiz-adv-x="221" 
d="M190 0h-160v521h160v-521z" />
    <glyph glyph-name="circumflex" unicode="&#x2c6;" horiz-adv-x="452" 
d="M427 568h-140l-61 58l-63 -58h-138l136 136h129z" />
    <glyph glyph-name="caron" unicode="&#x2c7;" horiz-adv-x="453" 
d="M25 704h140l61 -58l63 58h138l-136 -136h-129z" />
    <glyph glyph-name="ring" unicode="&#x2da;" horiz-adv-x="320" 
d="M102 556q0 -23 16 -39t39 -16t39.5 16t16.5 39t-16.5 39.5t-39.5 16.5t-39 -16.5t-16 -39.5zM44 556q0 24 9 44.5t24.5 36t36 24.5t43.5 9q24 0 44.5 -9t36 -24.5t24.5 -36t9 -44.5q0 -23 -9 -43.5t-24.5 -36t-36 -24.5t-44.5 -9q-23 0 -43.5 9t-36 24.5t-24.5 36
t-9 43.5z" />
    <glyph glyph-name="tilde" unicode="&#x2dc;" horiz-adv-x="478" 
d="M438 676q-52 -70 -119 -70q-26 0 -46 8t-38.5 17.5t-36.5 17.5t-39 8q-15 0 -25.5 -4t-18.5 -10t-13.5 -12t-10.5 -10l-51 81q52 70 119 70q33 0 55 -8t39 -17.5l32 -17.5t34 -8q15 0 25.5 4t18.5 10t13.5 12t10.5 10z" />
    <glyph glyph-name="endash" unicode="&#x2013;" horiz-adv-x="462" 
d="M0 272v142h462v-142h-462z" />
    <glyph glyph-name="emdash" unicode="&#x2014;" horiz-adv-x="702" 
d="M0 272v142h702v-142h-702z" />
    <glyph glyph-name="quoteleft" unicode="&#x2018;" horiz-adv-x="240" 
d="M40 570q0 31 7.5 54t18.5 38t23.5 22.5t23.5 7.5h67l-41 -92h61v-160h-160v130z" />
    <glyph glyph-name="quoteright" unicode="&#x2019;" horiz-adv-x="240" 
d="M200 562q0 -31 -7.5 -54t-18.5 -38t-23.5 -22.5t-23.5 -7.5h-67l41 92h-61v160h160v-130z" />
    <glyph glyph-name="quotesinglbase" unicode="&#x201a;" horiz-adv-x="240" 
d="M200 30q0 -31 -7.5 -54t-18.5 -38t-23.5 -22.5t-23.5 -7.5h-67l41 92h-61v160h160v-130z" />
    <glyph glyph-name="quotedblleft" unicode="&#x201c;" horiz-adv-x="447" 
d="M247 570q0 31 7.5 54t18.5 38t23.5 22.5t23.5 7.5h67l-41 -92h61v-160h-160v130zM40 570q0 31 7.5 54t18.5 38t23.5 22.5t23.5 7.5h67l-41 -92h61v-160h-160v130z" />
    <glyph glyph-name="quotedblright" unicode="&#x201d;" horiz-adv-x="447" 
d="M200 562q0 -31 -7.5 -54t-18.5 -38t-23.5 -22.5t-23.5 -7.5h-67l41 92h-61v160h160v-130zM407 562q0 -31 -7.5 -54t-18.5 -38t-23.5 -22.5t-23.5 -7.5h-67l41 92h-61v160h160v-130z" />
    <glyph glyph-name="quotedblbase" unicode="&#x201e;" horiz-adv-x="447" 
d="M200 30q0 -31 -7.5 -54t-18.5 -38t-23.5 -22.5t-23.5 -7.5h-67l41 92h-61v160h160v-130zM407 30q0 -31 -7.5 -54t-18.5 -38t-23.5 -22.5t-23.5 -7.5h-67l41 92h-61v160h160v-130z" />
    <glyph glyph-name="dagger" unicode="&#x2020;" horiz-adv-x="542" 
d="M350 390v-432h-158v432h-162v131h161v171h159v-171h162v-131h-162z" />
    <glyph glyph-name="daggerdbl" unicode="&#x2021;" horiz-adv-x="542" 
d="M350 390v-130h162v-131h-162v-171h-158v171h-162v131h162v130h-162v131h161v171h159v-171h162v-131h-162z" />
    <glyph glyph-name="ellipsis" unicode="&#x2026;" horiz-adv-x="668" 
d="M628 0h-160v160h160v-160zM414 0h-160v160h160v-160zM200 0h-160v160h160v-160z" />
    <glyph glyph-name="guilsinglleft" unicode="&#x2039;" horiz-adv-x="260" 
d="M155 249l70 -199h-130l-70 201l70 199h130z" />
    <glyph glyph-name="guilsinglright" unicode="&#x203a;" horiz-adv-x="260" 
d="M35 450h130l70 -199l-70 -201h-130l70 199z" />
    <glyph glyph-name="trademark" unicode="&#x2122;" horiz-adv-x="739" 
d="M152 544v-176q0 -6 3.5 -9t7.5 -3t8 3t4 9v97h91v-101q0 -24 -9 -42t-24 -30t-35 -18t-41 -6q-49 0 -80 24t-31 72v180h-36v85h36v63h106v-63h114v-85h-114zM609 285v234q0 11 -9.5 17t-17.5 6t-17.5 -6t-9.5 -17v-234h-106v234q0 11 -9 17t-17 6t-18 -6t-10 -17v-234
h-106v344h101v-32q28 38 80 38q26 0 45.5 -11.5t30.5 -29.5q13 18 35.5 29.5t47.5 11.5q35 0 60 -21t25 -52v-277h-105z" />
    <glyph glyph-name="periodcentered" unicode="&#xb7;" horiz-adv-x="240" 
d="M200 289h-160v160h160v-160z" />
    <glyph glyph-name="periodcentered" unicode="&#x2219;" horiz-adv-x="240" 
d="M200 289h-160v160h160v-160z" />
    <glyph glyph-name="M" unicode="M" horiz-adv-x="884" 
d="M834 -42h-180v468l-149 -468h-126l-149 468v-468h-180v734h247l145 -413l145 413h247v-734z" />
    <glyph glyph-name="question" unicode="?" horiz-adv-x="514" 
d="M309 -42h-160v160h160v-160zM149 337h67q48 0 68 24t20 57v81q0 20 -13.5 32t-33.5 12t-33.5 -12t-13.5 -32v-81h-170v124q0 54 20 87t51.5 51t70 24t75.5 6t75.5 -6t70 -24t51.5 -51t20 -87v-198q0 -40 -15.5 -71t-43 -52.5t-65 -32.5t-81.5 -11h-120v160z" />
    <glyph glyph-name="O" unicode="O" horiz-adv-x="594" 
d="M298 549q-20 0 -35.5 -5.5t-26 -13t-16 -16.5t-5.5 -16v-346q0 -7 5.5 -16t15.5 -16.5t25 -13t35 -5.5t35.5 5.5t26 13t16 16.5t5.5 16v346q0 16 -21.5 33.5t-59.5 17.5zM299 -60q-55 0 -103 12.5t-84 37.5t-56.5 63.5t-20.5 90.5v362q0 52 20 90.5t55.5 63.5t83 37.5
t101.5 12.5q55 0 103 -12.5t84 -37.5t56.5 -63.5t20.5 -90.5v-362q0 -52 -20 -90.5t-55.5 -63.5t-83 -37.5t-101.5 -12.5z" />
    <glyph glyph-name="Z" unicode="Z" horiz-adv-x="533" 
d="M508 692v-161l-267 -412h267v-161h-483v161l268 412h-268v161h483z" />
    <glyph glyph-name="quotesingle" unicode="'" horiz-adv-x="200" 
d="M160 464h-120v228h120v-228z" />
    <glyph glyph-name="quotedbl" unicode="&#x22;" horiz-adv-x="371" 
d="M331 464h-120v228h120v-228zM160 464h-120v228h120v-228z" />
    <glyph glyph-name="numbersign" unicode="#" 
d="M222 400h76l11 76h-76zM148 575l11 80h98l-11 -80h76l11 80h99l-11 -80h80l-13 -99h-80l-11 -76h80l-13 -98h-80l-11 -81h-99l11 81h-76l-11 -81h-98l11 81h-81l13 98h81l11 76h-81l13 99h81z" />
    <glyph glyph-name="ampersand" unicode="&#x26;" horiz-adv-x="636" 
d="M229 502q0 -29 8.5 -49t19.5 -34q29 20 49 40t20 32v11q0 21 -16 33.5t-32 12.5t-32.5 -12.5t-16.5 -33.5zM200 167q0 -21 16 -33t32 -12h89q20 0 41 18l-147 138q-8 -2 -13.5 -9.5t-9.5 -16.5t-6 -17.5t-2 -14.5v-53v0zM559 368v-121q0 -51 -17 -102l69 -65l-83 -83
l-47 45q-20 -20 -45 -31t-54 -11h-174q-36 0 -67.5 6t-55 23.5t-37 49.5t-13.5 84q0 43 6.5 74.5t19.5 55t31 39.5t41 27q-20 27 -34.5 59.5t-14.5 88.5q0 49 17 80.5t44 49.5t62 25t71 7t72 -6t65.5 -23t47.5 -49t18 -84q0 -24 -13 -47t-33 -44.5t-46 -40.5t-51 -35l86 -82
v110h135z" />
    <glyph glyph-name="backslash" unicode="\" horiz-adv-x="404" 
d="M394 -42h-129l-255 734h130z" />
    <glyph glyph-name="bracketleft" unicode="[" horiz-adv-x="329" 
d="M294 -42h-244v734h244v-113h-76v-508h76v-113z" />
    <glyph glyph-name="bracketright" unicode="]" horiz-adv-x="329" 
d="M35 71h76v508h-76v113h244v-734h-244v113z" />
    <glyph glyph-name="four" unicode="4" 
d="M279 286v233l-94 -233h94zM279 141h-251v145l155 369h261v-369h57v-145h-57v-141h-165v141z" />
    <glyph glyph-name="at" unicode="@" horiz-adv-x="625" 
d="M371 208q18 0 36 12t18 36q0 17 -5.5 28.5t-14 19t-17.5 10.5t-16 3q-13 0 -23.5 -16t-10.5 -39t8.5 -38.5t24.5 -15.5zM444 97q-7 9 -11.5 21t-7.5 23q-21 -25 -52.5 -42t-66.5 -17q-39 0 -63 18.5t-37 46t-17.5 59t-4.5 57.5q0 43 13.5 75.5t34 54.5t44 33.5t44.5 11.5
q13 0 28.5 -1.5t30 -7t27 -14.5t19.5 -24v58q0 21 -21 41t-68 20q-32 0 -65 -8t-60 -26.5t-44 -48.5t-17 -73v-166q0 -24 9.5 -51t30 -50.5t51.5 -38.5t75 -15q23 0 46.5 8t46.5 27l17 -37t23 -40q-9 -14 -24.5 -27t-33.5 -22.5t-38 -15.5t-39 -6q-63 0 -115.5 19.5
t-90 53.5t-58 78.5t-20.5 94.5v237q0 37 18.5 76.5t55.5 71t93.5 52t132.5 20.5q42 0 85 -8.5t78 -29t57 -54t22 -83.5v-275q0 -9 2 -20t5 -22t6 -20.5t5 -13.5h-146v0z" />
    <glyph glyph-name="equal" unicode="=" horiz-adv-x="500" 
d="M48 361v102h404v-102h-404zM48 172v102h404v-102h-404z" />
    <glyph glyph-name="Acircumflex" unicode="&#xc2;" horiz-adv-x="594" 
d="M379 364v124q0 7 -5.5 16t-15.5 16.5t-25.5 13t-34.5 5.5q-20 0 -35.5 -5.5t-26 -13t-16 -16.5t-5.5 -16v-124h164zM379 203h-164v-245h-180v548q0 52 20 90.5t55.5 63.5t83 37.5t101.5 12.5q55 0 103 -12.5t84 -37.5t56.5 -63.5t20.5 -90.5v-548h-180v245zM498 739h-140
l-61 58l-63 -58h-138l136 136h129z" />
    <glyph glyph-name="Atilde" unicode="&#xc3;" horiz-adv-x="594" 
d="M379 364v124q0 7 -5.5 16t-15.5 16.5t-25.5 13t-34.5 5.5q-20 0 -35.5 -5.5t-26 -13t-16 -16.5t-5.5 -16v-124h164zM379 203h-164v-245h-180v548q0 52 20 90.5t55.5 63.5t83 37.5t101.5 12.5q55 0 103 -12.5t84 -37.5t56.5 -63.5t20.5 -90.5v-548h-180v245zM496 797
q-52 -70 -119 -70q-26 0 -46 8t-38.5 17.5t-36.5 17.5t-39 8q-15 0 -25.5 -4t-18.5 -10t-13.5 -12t-10.5 -10l-51 81q52 70 119 70q33 0 55 -8t39 -17.5l32 -17.5t34 -8q15 0 25.5 4t18.5 10t13.5 12t10.5 10z" />
    <glyph glyph-name="Adieresis" unicode="&#xc4;" horiz-adv-x="594" 
d="M379 364v124q0 7 -5.5 16t-15.5 16.5t-25.5 13t-34.5 5.5q-20 0 -35.5 -5.5t-26 -13t-16 -16.5t-5.5 -16v-124h164zM379 203h-164v-245h-180v548q0 52 20 90.5t55.5 63.5t83 37.5t101.5 12.5q55 0 103 -12.5t84 -37.5t56.5 -63.5t20.5 -90.5v-548h-180v245zM479 730h-133
v133h133v-133zM251 730h-133v133h133v-133z" />
    <glyph glyph-name="Aring" unicode="&#xc5;" horiz-adv-x="594" 
d="M379 364v124q0 7 -5.5 16t-15.5 16.5t-25.5 13t-34.5 5.5q-20 0 -35.5 -5.5t-26 -13t-16 -16.5t-5.5 -16v-124h164zM379 203h-164v-245h-180v548q0 52 20 90.5t55.5 63.5t83 37.5t101.5 12.5q55 0 103 -12.5t84 -37.5t56.5 -63.5t20.5 -90.5v-548h-180v245zM241 837
q0 -23 16 -39t39 -16t39.5 16t16.5 39t-16.5 39.5t-39.5 16.5t-39 -16.5t-16 -39.5zM183 837q0 24 9 44.5t24.5 36t36 24.5t43.5 9q24 0 44.5 -9t36 -24.5t24.5 -36t9 -44.5q0 -23 -9 -43.5t-24.5 -36t-36 -24.5t-44.5 -9q-23 0 -43.5 9t-36 24.5t-24.5 36t-9 43.5z" />
    <glyph glyph-name="Egrave" unicode="&#xc8;" horiz-adv-x="536" 
d="M50 692h446v-161h-266v-125h266v-161h-266v-126h266v-161h-446v734zM191 854l194 -92l-25 -62l-212 56z" />
    <glyph glyph-name="Eacute" unicode="&#xc9;" horiz-adv-x="536" 
d="M50 692h446v-161h-266v-125h266v-161h-266v-126h266v-161h-446v734zM459 758l-212 -56l-25 62l194 92z" />
    <glyph glyph-name="Ecircumflex" unicode="&#xca;" horiz-adv-x="536" 
d="M50 692h446v-161h-266v-125h266v-161h-266v-126h266v-161h-446v734zM486 739h-140l-61 58l-63 -58h-138l136 136h129z" />
    <glyph glyph-name="Edieresis" unicode="&#xcb;" horiz-adv-x="536" 
d="M50 692h446v-161h-266v-125h266v-161h-266v-126h266v-161h-446v734zM475 730h-133v133h133v-133zM247 730h-133v133h133v-133z" />
    <glyph glyph-name="Ograve" unicode="&#xd2;" horiz-adv-x="594" 
d="M298 549q-20 0 -35.5 -5.5t-26 -13t-16 -16.5t-5.5 -16v-346q0 -7 5.5 -16t15.5 -16.5t25 -13t35 -5.5t35.5 5.5t26 13t16 16.5t5.5 16v346q0 16 -21.5 33.5t-59.5 17.5zM299 -60q-55 0 -103 12.5t-84 37.5t-56.5 63.5t-20.5 90.5v362q0 52 20 90.5t55.5 63.5t83 37.5
t101.5 12.5q55 0 103 -12.5t84 -37.5t56.5 -63.5t20.5 -90.5v-362q0 -52 -20 -90.5t-55.5 -63.5t-83 -37.5t-101.5 -12.5zM181 875l194 -92l-25 -62l-212 56z" />
    <glyph glyph-name="Ocircumflex" unicode="&#xd4;" horiz-adv-x="594" 
d="M298 549q-20 0 -35.5 -5.5t-26 -13t-16 -16.5t-5.5 -16v-346q0 -7 5.5 -16t15.5 -16.5t25 -13t35 -5.5t35.5 5.5t26 13t16 16.5t5.5 16v346q0 16 -21.5 33.5t-59.5 17.5zM299 -60q-55 0 -103 12.5t-84 37.5t-56.5 63.5t-20.5 90.5v362q0 52 20 90.5t55.5 63.5t83 37.5
t101.5 12.5q55 0 103 -12.5t84 -37.5t56.5 -63.5t20.5 -90.5v-362q0 -52 -20 -90.5t-55.5 -63.5t-83 -37.5t-101.5 -12.5zM498 739h-140l-61 58l-63 -58h-138l136 136h129z" />
    <glyph glyph-name="Otilde" unicode="&#xd5;" horiz-adv-x="594" 
d="M298 549q-20 0 -35.5 -5.5t-26 -13t-16 -16.5t-5.5 -16v-346q0 -7 5.5 -16t15.5 -16.5t25 -13t35 -5.5t35.5 5.5t26 13t16 16.5t5.5 16v346q0 16 -21.5 33.5t-59.5 17.5zM299 -60q-55 0 -103 12.5t-84 37.5t-56.5 63.5t-20.5 90.5v362q0 52 20 90.5t55.5 63.5t83 37.5
t101.5 12.5q55 0 103 -12.5t84 -37.5t56.5 -63.5t20.5 -90.5v-362q0 -52 -20 -90.5t-55.5 -63.5t-83 -37.5t-101.5 -12.5zM485 795q-52 -70 -119 -70q-26 0 -46 8t-38.5 17.5t-36.5 17.5t-39 8q-15 0 -25.5 -4t-18.5 -10t-13.5 -12t-10.5 -10l-51 81q52 70 119 70
q33 0 55 -8t39 -17.5l32 -17.5t34 -8q15 0 25.5 4t18.5 10t13.5 12t10.5 10z" />
    <glyph glyph-name="Odieresis" unicode="&#xd6;" horiz-adv-x="594" 
d="M298 549q-20 0 -35.5 -5.5t-26 -13t-16 -16.5t-5.5 -16v-346q0 -7 5.5 -16t15.5 -16.5t25 -13t35 -5.5t35.5 5.5t26 13t16 16.5t5.5 16v346q0 16 -21.5 33.5t-59.5 17.5zM299 -60q-55 0 -103 12.5t-84 37.5t-56.5 63.5t-20.5 90.5v362q0 52 20 90.5t55.5 63.5t83 37.5
t101.5 12.5q55 0 103 -12.5t84 -37.5t56.5 -63.5t20.5 -90.5v-362q0 -52 -20 -90.5t-55.5 -63.5t-83 -37.5t-101.5 -12.5zM479 730h-133v133h133v-133zM251 730h-133v133h133v-133z" />
    <glyph glyph-name="Ugrave" unicode="&#xd9;" horiz-adv-x="619" 
d="M230 162q0 -7 5.5 -16t15.5 -16.5t25 -13t35 -5.5t35.5 5.5t26 13t16 16.5t5.5 16v530h180v-548q0 -52 -20 -90.5t-55.5 -63.5t-83 -37.5t-101.5 -12.5q-55 0 -103 12.5t-84 37.5t-56.5 63.5t-20.5 90.5v548h180v-530v0zM196 875l194 -92l-25 -62l-212 56z" />
    <glyph glyph-name="Ucircumflex" unicode="&#xdb;" horiz-adv-x="619" 
d="M230 162q0 -7 5.5 -16t15.5 -16.5t25 -13t35 -5.5t35.5 5.5t26 13t16 16.5t5.5 16v530h180v-548q0 -52 -20 -90.5t-55.5 -63.5t-83 -37.5t-101.5 -12.5q-55 0 -103 12.5t-84 37.5t-56.5 63.5t-20.5 90.5v548h180v-530v0zM513 739h-140l-61 58l-63 -58h-138l136 136h129z
" />
    <glyph glyph-name="Udieresis" unicode="&#xdc;" horiz-adv-x="619" 
d="M230 162q0 -7 5.5 -16t15.5 -16.5t25 -13t35 -5.5t35.5 5.5t26 13t16 16.5t5.5 16v530h180v-548q0 -52 -20 -90.5t-55.5 -63.5t-83 -37.5t-101.5 -12.5q-55 0 -103 12.5t-84 37.5t-56.5 63.5t-20.5 90.5v548h180v-530v0zM495 730h-133v133h133v-133zM267 730h-133v133
h133v-133z" />
    <glyph glyph-name="Ntilde" unicode="&#xd1;" horiz-adv-x="644" 
d="M45 692h190l184 -391v391h180v-734h-190l-184 382v-382h-180v734zM506 784q-52 -70 -119 -70q-26 0 -46 8t-38.5 17.5t-36.5 17.5t-39 8q-15 0 -25.5 -4t-18.5 -10t-13.5 -12t-10.5 -10l-51 81q52 70 119 70q33 0 55 -8t39 -17.5l32 -17.5t34 -8q15 0 25.5 4t18.5 10
t13.5 12t10.5 10z" />
    <glyph glyph-name="Ccedilla" unicode="&#xc7;" horiz-adv-x="601" 
d="M301 -60q-71 0 -121.5 21.5t-82.5 59t-47 87.5t-15 107v221q0 57 15 106.5t47.5 87t83 59t121.5 21.5q81 0 130.5 -25t77.5 -65t38.5 -88.5t12.5 -95.5h-180q0 10 -2 29t-9.5 38t-22.5 32.5t-42 13.5q-23 0 -39.5 -11t-28 -29.5t-17 -42.5t-5.5 -50v-180q0 -27 5.5 -51
t17 -43t28 -30t39.5 -11q27 0 42 14t22.5 32.5t9.5 37.5t2 30h180q-2 -47 -12.5 -96t-38.5 -88.5t-78 -65t-131 -25.5zM355 -41q14 -20 25 -39.5t11 -51.5q0 -11 -4.5 -22t-13 -20t-19.5 -14.5t-23 -5.5h-112v77h68q8 0 15.5 11.5t7.5 28.5q0 19 -11 36h56z" />
    <glyph glyph-name="agrave" unicode="&#xe0;" horiz-adv-x="448" 
d="M266 209q-18 -5 -33.5 -7t-27.5 -7t-19 -16t-7 -34q0 -34 33 -34q18 0 36 12t18 36v50zM38 362q0 90 52.5 132t140.5 42q36 0 69.5 -7t59.5 -22t42 -39t16 -57v-335q0 -9 2 -20t5 -22t6 -20.5t5 -13.5h-151q-7 9 -11.5 21t-7.5 23q-21 -25 -52.5 -42t-66.5 -17
q-39 0 -63 13.5t-37 35.5t-17.5 49t-4.5 53q0 46 10 74.5t27 44.5t38.5 22.5t43.5 9t43.5 3.5t38.5 6q14 5 27 15t13 24v47q0 21 -13 31t-24 10t-24 -10t-13 -31v-64h-154v44zM136 704l194 -92l-25 -62l-212 56z" />
    <glyph glyph-name="acircumflex" unicode="&#xe2;" horiz-adv-x="448" 
d="M266 209q-18 -5 -33.5 -7t-27.5 -7t-19 -16t-7 -34q0 -34 33 -34q18 0 36 12t18 36v50zM38 362q0 90 52.5 132t140.5 42q36 0 69.5 -7t59.5 -22t42 -39t16 -57v-335q0 -9 2 -20t5 -22t6 -20.5t5 -13.5h-151q-7 9 -11.5 21t-7.5 23q-21 -25 -52.5 -42t-66.5 -17
q-39 0 -63 13.5t-37 35.5t-17.5 49t-4.5 53q0 46 10 74.5t27 44.5t38.5 22.5t43.5 9t43.5 3.5t38.5 6q14 5 27 15t13 24v47q0 21 -13 31t-24 10t-24 -10t-13 -31v-64h-154v44zM429 568h-140l-61 58l-63 -58h-138l136 136h129z" />
    <glyph glyph-name="atilde" unicode="&#xe3;" horiz-adv-x="448" 
d="M266 209q-18 -5 -33.5 -7t-27.5 -7t-19 -16t-7 -34q0 -34 33 -34q18 0 36 12t18 36v50zM38 362q0 90 52.5 132t140.5 42q36 0 69.5 -7t59.5 -22t42 -39t16 -57v-335q0 -9 2 -20t5 -22t6 -20.5t5 -13.5h-151q-7 9 -11.5 21t-7.5 23q-21 -25 -52.5 -42t-66.5 -17
q-39 0 -63 13.5t-37 35.5t-17.5 49t-4.5 53q0 46 10 74.5t27 44.5t38.5 22.5t43.5 9t43.5 3.5t38.5 6q14 5 27 15t13 24v47q0 21 -13 31t-24 10t-24 -10t-13 -31v-64h-154v44zM429 630q-52 -70 -119 -70q-26 0 -46 8t-38.5 17.5t-36.5 17.5t-39 8q-15 0 -25.5 -4t-18.5 -10
t-13.5 -12t-10.5 -10l-51 81q52 70 119 70q33 0 55 -8t39 -17.5l32 -17.5t34 -8q15 0 25.5 4t18.5 10t13.5 12t10.5 10z" />
    <glyph glyph-name="adieresis" unicode="&#xe4;" horiz-adv-x="448" 
d="M266 209q-18 -5 -33.5 -7t-27.5 -7t-19 -16t-7 -34q0 -34 33 -34q18 0 36 12t18 36v50zM38 362q0 90 52.5 132t140.5 42q36 0 69.5 -7t59.5 -22t42 -39t16 -57v-335q0 -9 2 -20t5 -22t6 -20.5t5 -13.5h-151q-7 9 -11.5 21t-7.5 23q-21 -25 -52.5 -42t-66.5 -17
q-39 0 -63 13.5t-37 35.5t-17.5 49t-4.5 53q0 46 10 74.5t27 44.5t38.5 22.5t43.5 9t43.5 3.5t38.5 6q14 5 27 15t13 24v47q0 21 -13 31t-24 10t-24 -10t-13 -31v-64h-154v44zM411 559h-133v133h133v-133zM183 559h-133v133h133v-133z" />
    <glyph glyph-name="aring" unicode="&#xe5;" horiz-adv-x="448" 
d="M266 209q-18 -5 -33.5 -7t-27.5 -7t-19 -16t-7 -34q0 -34 33 -34q18 0 36 12t18 36v50zM38 362q0 90 52.5 132t140.5 42q36 0 69.5 -7t59.5 -22t42 -39t16 -57v-335q0 -9 2 -20t5 -22t6 -20.5t5 -13.5h-151q-7 9 -11.5 21t-7.5 23q-21 -25 -52.5 -42t-66.5 -17
q-39 0 -63 13.5t-37 35.5t-17.5 49t-4.5 53q0 46 10 74.5t27 44.5t38.5 22.5t43.5 9t43.5 3.5t38.5 6q14 5 27 15t13 24v47q0 21 -13 31t-24 10t-24 -10t-13 -31v-64h-154v44zM173 680q0 -23 16 -39t39 -16t39.5 16t16.5 39t-16.5 39.5t-39.5 16.5t-39 -16.5t-16 -39.5z
M115 680q0 24 9 44.5t24.5 36t36 24.5t43.5 9q24 0 44.5 -9t36 -24.5t24.5 -36t9 -44.5q0 -23 -9 -43.5t-24.5 -36t-36 -24.5t-44.5 -9q-23 0 -43.5 9t-36 24.5t-24.5 36t-9 43.5z" />
    <glyph glyph-name="egrave" unicode="&#xe8;" horiz-adv-x="447" 
d="M262 385q0 12 -11 24.5t-26 12.5q-18 0 -29 -12.5t-11 -24.5v-66h77v66zM422 184q0 -94 -47 -146.5t-146 -52.5q-104 0 -154 50.5t-50 158.5v124q0 49 10 89.5t33.5 69t62.5 44t97 15.5q51 0 88 -15.5t60.5 -40.5t34.5 -55.5t11 -61.5v-135h-237v-96q0 -17 14.5 -25
t26.5 -8q13 0 26 8t13 25v52h157v0zM131 704l194 -92l-25 -62l-212 56z" />
    <glyph glyph-name="ecircumflex" unicode="&#xea;" horiz-adv-x="452" 
d="M267 385q0 12 -11 24.5t-26 12.5q-18 0 -29 -12.5t-11 -24.5v-66h77v66zM427 184q0 -94 -47 -146.5t-146 -52.5q-104 0 -154 50.5t-50 158.5v124q0 49 10 89.5t33.5 69t62.5 44t97 15.5q51 0 88 -15.5t60.5 -40.5t34.5 -55.5t11 -61.5v-135h-237v-96q0 -17 14.5 -25
t26.5 -8q13 0 26 8t13 25v52h157v0zM427 568h-140l-61 58l-63 -58h-138l136 136h129z" />
    <glyph glyph-name="edieresis" unicode="&#xeb;" horiz-adv-x="447" 
d="M262 385q0 12 -11 24.5t-26 12.5q-18 0 -29 -12.5t-11 -24.5v-66h77v66zM422 184q0 -94 -47 -146.5t-146 -52.5q-104 0 -154 50.5t-50 158.5v124q0 49 10 89.5t33.5 69t62.5 44t97 15.5q51 0 88 -15.5t60.5 -40.5t34.5 -55.5t11 -61.5v-135h-237v-96q0 -17 14.5 -25
t26.5 -8q13 0 26 8t13 25v52h157v0zM403 559h-133v133h133v-133zM175 559h-133v133h133v-133z" />
    <glyph glyph-name="ograve" unicode="&#xf2;" horiz-adv-x="438" 
d="M219 104q11 0 22.5 5.5t11.5 22.5v257q0 17 -11.5 22.5t-22.5 5.5t-22.5 -5.5t-11.5 -22.5v-257q0 -17 11.5 -22.5t22.5 -5.5zM219 536q48 0 84 -13.5t60.5 -36.5t37 -53.5t12.5 -65.5v-213q0 -35 -12.5 -65.5t-37 -53.5t-60.5 -36.5t-84 -13.5t-84 13.5t-60.5 36.5
t-37 53.5t-12.5 65.5v213q0 35 12.5 65.5t37 53.5t60.5 36.5t84 13.5zM126 704l194 -92l-25 -62l-212 56z" />
    <glyph glyph-name="ocircumflex" unicode="&#xf4;" horiz-adv-x="452" 
d="M229 104q11 0 22.5 5.5t11.5 22.5v257q0 17 -11.5 22.5t-22.5 5.5t-22.5 -5.5t-11.5 -22.5v-257q0 -17 11.5 -22.5t22.5 -5.5zM229 536q48 0 84 -13.5t60.5 -36.5t37 -53.5t12.5 -65.5v-213q0 -35 -12.5 -65.5t-37 -53.5t-60.5 -36.5t-84 -13.5t-84 13.5t-60.5 36.5
t-37 53.5t-12.5 65.5v213q0 35 12.5 65.5t37 53.5t60.5 36.5t84 13.5zM427 568h-140l-61 58l-63 -58h-138l136 136h129z" />
    <glyph glyph-name="otilde" unicode="&#xf5;" horiz-adv-x="451" 
d="M232 104q11 0 22.5 5.5t11.5 22.5v257q0 17 -11.5 22.5t-22.5 5.5t-22.5 -5.5t-11.5 -22.5v-257q0 -17 11.5 -22.5t22.5 -5.5zM232 536q48 0 84 -13.5t60.5 -36.5t37 -53.5t12.5 -65.5v-213q0 -35 -12.5 -65.5t-37 -53.5t-60.5 -36.5t-84 -13.5t-84 13.5t-60.5 36.5
t-37 53.5t-12.5 65.5v213q0 35 12.5 65.5t37 53.5t60.5 36.5t84 13.5zM424 632q-52 -70 -119 -70q-26 0 -46 8t-38.5 17.5t-36.5 17.5t-39 8q-15 0 -25.5 -4t-18.5 -10t-13.5 -12t-10.5 -10l-51 81q52 70 119 70q33 0 55 -8t39 -17.5l32 -17.5t34 -8q15 0 25.5 4t18.5 10
t13.5 12t10.5 10z" />
    <glyph glyph-name="odieresis" unicode="&#xf6;" horiz-adv-x="438" 
d="M219 104q11 0 22.5 5.5t11.5 22.5v257q0 17 -11.5 22.5t-22.5 5.5t-22.5 -5.5t-11.5 -22.5v-257q0 -17 11.5 -22.5t22.5 -5.5zM219 536q48 0 84 -13.5t60.5 -36.5t37 -53.5t12.5 -65.5v-213q0 -35 -12.5 -65.5t-37 -53.5t-60.5 -36.5t-84 -13.5t-84 13.5t-60.5 36.5
t-37 53.5t-12.5 65.5v213q0 35 12.5 65.5t37 53.5t60.5 36.5t84 13.5zM398 559h-133v133h133v-133zM170 559h-133v133h133v-133z" />
    <glyph glyph-name="ugrave" unicode="&#xf9;" horiz-adv-x="477" 
d="M195 521v-354q0 -18 15 -27t26 -9t26 9.5t15 26.5v354h160v-521h-153v49q-20 -28 -51.5 -43.5t-68.5 -15.5q-27 0 -50.5 8.5t-41 23.5t-27.5 35.5t-10 44.5v419h160zM125 704l194 -92l-25 -62l-212 56z" />
    <glyph glyph-name="ucircumflex" unicode="&#xfb;" horiz-adv-x="478" 
d="M196 521v-354q0 -18 15 -27t26 -9t26 9.5t15 26.5v354h160v-521h-153v49q-20 -28 -51.5 -43.5t-68.5 -15.5q-27 0 -50.5 8.5t-41 23.5t-27.5 35.5t-10 44.5v419h160zM437 568h-140l-61 58l-63 -58h-138l136 136h129z" />
    <glyph glyph-name="udieresis" unicode="&#xfc;" horiz-adv-x="477" 
d="M195 521v-354q0 -18 15 -27t26 -9t26 9.5t15 26.5v354h160v-521h-153v49q-20 -28 -51.5 -43.5t-68.5 -15.5q-27 0 -50.5 8.5t-41 23.5t-27.5 35.5t-10 44.5v419h160zM415 559h-133v133h133v-133zM187 559h-133v133h133v-133z" />
    <glyph glyph-name="ydieresis" unicode="&#xff;" horiz-adv-x="477" 
d="M437 521v-563q0 -36 -15 -66t-41.5 -51t-62.5 -33t-79 -12q-93 0 -148.5 35t-55.5 112v57h160v-36q0 -16 15 -26t26 -10t26 9.5t15 26.5v120q-8 -8 -20 -16.5t-26 -16t-29 -12t-28 -4.5q-30 0 -55 10t-44 29t-29.5 45.5t-10.5 58.5v343h160v-307q0 -18 15 -27t26 -9
t26 9.5t15 26.5v307h160zM414 559h-133v133h133v-133zM186 559h-133v133h133v-133z" />
    <glyph glyph-name="ntilde" unicode="&#xf1;" horiz-adv-x="477" 
d="M282 0v345q0 18 -14.5 27t-25.5 9t-26.5 -9.5t-15.5 -26.5v-345h-160v521h153v-49q20 28 51.5 43.5t68.5 15.5q27 0 50.5 -8.5t41 -23.5t27.5 -35.5t10 -44.5v-419h-160zM439 636q-52 -70 -119 -70q-26 0 -46 8t-38.5 17.5t-36.5 17.5t-39 8q-15 0 -25.5 -4t-18.5 -10
t-13.5 -12t-10.5 -10l-51 81q52 70 119 70q33 0 55 -8t39 -17.5l32 -17.5t34 -8q15 0 25.5 4t18.5 10t13.5 12t10.5 10z" />
    <glyph glyph-name="ccedilla" unicode="&#xe7;" horiz-adv-x="424" 
d="M405 92q-18 -51 -65.5 -79t-120.5 -28q-55 0 -92.5 20t-60 53.5t-32 78t-9.5 92.5v80q0 45 9 86t31 72.5t59.5 50t94.5 18.5q54 0 90.5 -13.5t58.5 -39t32.5 -62.5t12.5 -84h-160v42q0 18 -8.5 28.5t-25.5 10.5q-16 0 -25 -10.5t-9 -28.5v-235q0 -17 9.5 -28t24.5 -11
q16 0 25 11t9 28v51h161q0 -79 -9 -103zM252 -5q14 -20 25 -39.5t11 -51.5q0 -11 -4.5 -22t-13 -20t-19.5 -14.5t-23 -5.5h-112v77h68q8 0 15.5 11.5t7.5 28.5q0 19 -11 36h56z" />
    <glyph glyph-name="Oslash" unicode="&#xd8;" horiz-adv-x="594" 
d="M215 221l127 309q-9 4 -20 6.5t-24 2.5q-20 0 -35.5 -5.5t-26 -13t-16 -16.5t-5.5 -16v-267zM296 111q20 0 35.5 5.5t26 13t16 16.5t5.5 16v268l-128 -310q9 -4 20 -6.5t25 -2.5zM299 -60q-65 0 -116 16l-24 -58h-77l36 88q-38 25 -60.5 64t-22.5 94v362q0 52 20 90.5
t55.5 63.5t83 37.5t101.5 12.5q31 0 60 -4t55 -12l24 58h78l-37 -88q39 -26 61.5 -65t22.5 -93v-362q0 -52 -20 -90.5t-55.5 -63.5t-83 -37.5t-101.5 -12.5z" />
    <glyph glyph-name="oslash" unicode="&#xf8;" horiz-adv-x="438" 
d="M185 263l67 143q-3 12 -13.5 16.5t-19.5 4.5q-11 0 -22.5 -5.5t-11.5 -22.5v-136zM219 94q11 0 22.5 5.5t11.5 22.5v137l-68 -143q3 -13 13.5 -17.5t20.5 -4.5zM73 25q-24 23 -36 53.5t-12 65.5v233q0 35 12.5 65.5t37 53.5t60.5 36.5t84 13.5q26 0 48.5 -4t42.5 -12
l20 42h70l-36 -76q24 -23 36.5 -53.5t12.5 -65.5v-233q0 -35 -12.5 -65.5t-37 -53.5t-60.5 -36.5t-84 -13.5q-52 0 -92 17l-20 -43h-69z" />
    <glyph glyph-name="acute" unicode="&#xb4;" horiz-adv-x="307" 
d="M272 606l-212 -56l-25 62l194 92z" />
    <glyph glyph-name="Oacute" unicode="&#xd3;" horiz-adv-x="594" 
d="M298 549q-20 0 -35.5 -5.5t-26 -13t-16 -16.5t-5.5 -16v-346q0 -7 5.5 -16t15.5 -16.5t25 -13t35 -5.5t35.5 5.5t26 13t16 16.5t5.5 16v346q0 16 -21.5 33.5t-59.5 17.5zM299 -60q-55 0 -103 12.5t-84 37.5t-56.5 63.5t-20.5 90.5v362q0 52 20 90.5t55.5 63.5t83 37.5
t101.5 12.5q55 0 103 -12.5t84 -37.5t56.5 -63.5t20.5 -90.5v-362q0 -52 -20 -90.5t-55.5 -63.5t-83 -37.5t-101.5 -12.5zM447 777l-212 -56l-25 62l194 92z" />
    <glyph glyph-name="Uacute" unicode="&#xda;" horiz-adv-x="619" 
d="M230 162q0 -7 5.5 -16t15.5 -16.5t25 -13t35 -5.5t35.5 5.5t26 13t16 16.5t5.5 16v530h180v-548q0 -52 -20 -90.5t-55.5 -63.5t-83 -37.5t-101.5 -12.5q-55 0 -103 12.5t-84 37.5t-56.5 63.5t-20.5 90.5v548h180v-530v0zM487 777l-212 -56l-25 62l194 92z" />
    <glyph glyph-name="aacute" unicode="&#xe1;" horiz-adv-x="448" 
d="M266 209q-18 -5 -33.5 -7t-27.5 -7t-19 -16t-7 -34q0 -34 33 -34q18 0 36 12t18 36v50zM38 362q0 90 52.5 132t140.5 42q36 0 69.5 -7t59.5 -22t42 -39t16 -57v-335q0 -9 2 -20t5 -22t6 -20.5t5 -13.5h-151q-7 9 -11.5 21t-7.5 23q-21 -25 -52.5 -42t-66.5 -17
q-39 0 -63 13.5t-37 35.5t-17.5 49t-4.5 53q0 46 10 74.5t27 44.5t38.5 22.5t43.5 9t43.5 3.5t38.5 6q14 5 27 15t13 24v47q0 21 -13 31t-24 10t-24 -10t-13 -31v-64h-154v44zM381 606l-212 -56l-25 62l194 92z" />
    <glyph glyph-name="eacute" unicode="&#xe9;" horiz-adv-x="447" 
d="M262 385q0 12 -11 24.5t-26 12.5q-18 0 -29 -12.5t-11 -24.5v-66h77v66zM422 184q0 -94 -47 -146.5t-146 -52.5q-104 0 -154 50.5t-50 158.5v124q0 49 10 89.5t33.5 69t62.5 44t97 15.5q51 0 88 -15.5t60.5 -40.5t34.5 -55.5t11 -61.5v-135h-237v-96q0 -17 14.5 -25
t26.5 -8q13 0 26 8t13 25v52h157v0zM365 606l-212 -56l-25 62l194 92z" />
    <glyph glyph-name="oacute" unicode="&#xf3;" horiz-adv-x="438" 
d="M219 104q11 0 22.5 5.5t11.5 22.5v257q0 17 -11.5 22.5t-22.5 5.5t-22.5 -5.5t-11.5 -22.5v-257q0 -17 11.5 -22.5t22.5 -5.5zM219 536q48 0 84 -13.5t60.5 -36.5t37 -53.5t12.5 -65.5v-213q0 -35 -12.5 -65.5t-37 -53.5t-60.5 -36.5t-84 -13.5t-84 13.5t-60.5 36.5
t-37 53.5t-12.5 65.5v213q0 35 12.5 65.5t37 53.5t60.5 36.5t84 13.5zM361 606l-212 -56l-25 62l194 92z" />
    <glyph glyph-name="uacute" unicode="&#xfa;" horiz-adv-x="477" 
d="M195 521v-354q0 -18 15 -27t26 -9t26 9.5t15 26.5v354h160v-521h-153v49q-20 -28 -51.5 -43.5t-68.5 -15.5q-27 0 -50.5 8.5t-41 23.5t-27.5 35.5t-10 44.5v419h160zM401 606l-212 -56l-25 62l194 92z" />
    <glyph glyph-name="igrave" unicode="&#xec;" horiz-adv-x="221" 
d="M190 0h-160v521h160v-521zM13 704l194 -92l-25 -62l-212 56z" />
    <glyph glyph-name="icircumflex" unicode="&#xee;" horiz-adv-x="332" 
d="M242 0h-160v521h160v-521zM368 568h-140l-61 58l-63 -58h-138l136 136h129z" />
    <glyph glyph-name="idieresis" unicode="&#xef;" horiz-adv-x="324" 
d="M242 0h-160v521h160v-521zM346 559h-133v133h133v-133zM118 559h-133v133h133v-133z" />
    <glyph glyph-name="Igrave" unicode="&#xcc;" horiz-adv-x="280" 
d="M50 692h180v-734h-180v734zM47 875l194 -92l-25 -62l-212 56z" />
    <glyph glyph-name="Iacute" unicode="&#xcd;" horiz-adv-x="280" 
d="M50 692h180v-734h-180v734zM281 777l-212 -56l-25 62l194 92z" />
    <glyph glyph-name="Icircumflex" unicode="&#xce;" horiz-adv-x="280" 
d="M50 692h180v-734h-180v734zM349 739h-140l-61 58l-63 -58h-138l136 136h129z" />
    <glyph glyph-name="Idieresis" unicode="&#xcf;" horiz-adv-x="280" 
d="M50 692h180v-734h-180v734zM328 730h-133v133h133v-133zM100 730h-133v133h133v-133z" />
    <glyph glyph-name="florin" unicode="&#x192;" 
d="M185 361v147q0 37 15 65t41.5 46t63 27t78.5 9h53v-113h-32q-29 0 -44 -10.5t-15 -39.5v-131h91v-72h-91v-276q0 -38 -15 -65.5t-41.5 -45.5t-63 -27t-78.5 -9h-53v113h32q29 0 44 10.5t15 39.5v260h-91v72h91z" />
    <glyph glyph-name="plusminus" unicode="&#xb1;" horiz-adv-x="1022" 
d="M494 61h-57q29 -41 57 -63v63zM531 -2q28 20 57 63h-57v-63v0zM531 368h63q-15 23 -32 41t-31 30v-71zM494 439q-14 -12 -31 -30t-32 -41h63v71zM576 -14q72 20 118 75h-59q-14 -23 -29 -42t-30 -33zM331 61q48 -55 117 -75q-30 30 -57 75h-60v0zM700 368
q-23 29 -54.5 50.5t-68.5 31.5q16 -15 32 -35.5t30 -46.5h61v0zM447 450q-37 -11 -68 -32t-55 -50h61q14 26 30.5 46t31.5 36zM300 329q-12 -20 -18.5 -43t-8.5 -48h74q2 26 6.5 48.5t12.5 42.5h-66v0zM752 238q-2 25 -8.5 48t-17.5 43h-67q7 -20 12.5 -42.5t7.5 -48.5h73z
M370 99q-9 22 -15 47.5t-8 53.5h-74q5 -57 31 -101h66v0zM721 99q26 44 31 101h-73q-2 -28 -9 -53.5t-16 -47.5h67v0zM531 238h108q-1 26 -7.5 48.5t-15.5 42.5h-85v-91zM494 329h-85q-9 -20 -15.5 -42.5t-8.5 -48.5h109v91zM494 200h-109q6 -56 29 -101h80v101zM531 99h80
q11 22 19 47t9 54h-108v-101zM513 -61q-58 0 -109 22t-89 60t-60 88.5t-22 108.5q0 47 14 88t39 76q-43 -20 -82 -20q-41 0 -70 12t-48 33t-27.5 48.5t-8.5 57.5q0 40 16 75t43.5 61.5t63.5 42t75 15.5q33 0 60.5 -13t47.5 -34.5t31 -49.5t11 -58q0 -24 -5.5 -47t-18.5 -45
q31 18 66 28t73 10q36 0 70 -9t63 -25q-23 43 -23 88q0 30 11.5 58t31.5 49.5t48 34.5t61 13q39 0 74.5 -15.5t63 -42t43.5 -62t16 -74.5q0 -29 -9.5 -56t-28.5 -48t-48 -34t-68 -13q-17 0 -36.5 4t-40.5 14q24 -34 37.5 -75t13.5 -87q0 -58 -22 -108.5t-60 -88.5t-89 -60
t-108 -22z" />
    <glyph glyph-name="macron" unicode="&#xaf;" horiz-adv-x="420" 
d="M35 774h350v-82h-350v82z" />
    <glyph glyph-name="macron" unicode="&#x2c9;" horiz-adv-x="420" 
d="M35 774h350v-82h-350v82z" />
    <glyph glyph-name="bullet" unicode="&#x2022;" horiz-adv-x="591" 
d="M308 174l15.5 16t16.5 22h-32v-38v0zM285 212h-33q8 -12 16.5 -21.5t16.5 -16.5v38zM308 392h36q-8 14 -18 23.5l-18 17.5v-41zM285 433l-18 -17.5t-19 -23.5h37v41zM333 168q21 5 38.5 16.5t30.5 27.5h-34q-14 -26 -35 -44zM190 212q14 -16 31.5 -27.5t37.5 -16.5
q-9 8 -17.5 19t-16.5 25h-35v0zM259 440q-46 -14 -73 -48h35q17 27 38 48zM407 392q-28 36 -73 48q9 -9 19 -21.5t18 -26.5h36v0zM171 369q-11 -22 -16 -53h44q1 14 4 27.5t7 25.5h-39v0zM437 316q-3 30 -16 53h-39q9 -24 12 -53h43zM213 234q-5 13 -9 27.5t-5 31.5h-44
q5 -33 19 -59h39v0zM419 234q15 27 18 59h-43q-3 -34 -15 -59h40v0zM308 316h63q-1 15 -5 28.5t-9 24.5h-49v-53zM285 369h-50q-11 -24 -14 -53h64v53zM308 234h46q7 13 11.5 27.5t5.5 31.5h-63v-59zM285 293h-64q2 -17 6.5 -31.5t11.5 -27.5h46v59zM296 140q-34 0 -63.5 13
t-51.5 35t-35 52t-13 64q0 55 31 95q-28 -11 -49 -11q-48 0 -69 27t-21 62q0 23 9.5 44t25.5 36.5t37 24.5t44 9q39 0 63.5 -28t24.5 -64q0 -14 -3 -27.5t-11 -25.5q36 21 81 21t79 -19q-14 25 -14 51q0 18 6.5 34.5t18.5 29.5t28.5 20.5t35.5 7.5q23 0 44 -9t37 -24.5
t25.5 -36.5t9.5 -44q0 -35 -22 -62t-68 -27q-11 0 -22.5 2.5t-23.5 8.5q14 -20 22 -44.5t8 -50.5q0 -34 -13 -64t-35 -52t-52 -35t-64 -13z" />
    <glyph glyph-name="semicolon" unicode=";" horiz-adv-x="300" 
d="M230 361h-160v160h160v-160zM230 30q0 -31 -7.5 -54t-18.5 -38t-23.5 -22.5t-23.5 -7.5h-67l41 92h-61v160h160v-130z" />
    <glyph glyph-name="semicolon" unicode="&#x37e;" horiz-adv-x="300" 
d="M230 361h-160v160h160v-160zM230 30q0 -31 -7.5 -54t-18.5 -38t-23.5 -22.5t-23.5 -7.5h-67l41 92h-61v160h160v-130z" />
    <glyph glyph-name="five" unicode="5" 
d="M217 419q20 11 43.5 16t47.5 5q31 0 61.5 -9.5t54.5 -29.5t39 -50t15 -72v-131q0 -52 -20 -84t-50.5 -49.5t-68.5 -23.5t-74 -6t-74 6t-68.5 23.5t-50.5 49.5t-20 84v56h165v-42q0 -21 16 -33t32 -12t32 12t16 33v103q0 21 -16 33t-32 12q-15 0 -30.5 -10.5t-17.5 -30.5
h-165v386h412v-145h-247v-91z" />
    <glyph glyph-name="one" unicode="1" 
d="M188 491h-69v117q38 2 58 15.5t36 31.5h140v-655h-165v491z" />
    <glyph glyph-name="OE" unicode="&#x152;" horiz-adv-x="865" 
d="M298 549q-20 0 -35.5 -5.5t-26 -13t-16 -16.5t-5.5 -16v-346q0 -7 5.5 -16t15.5 -16.5t25 -13t35 -5.5q19 0 34 5t25.5 12t16.5 15.5t7 15.5v352q-2 15 -23.5 31.5t-57.5 16.5zM299 -60q-55 0 -103 12.5t-84 37.5t-56.5 63.5t-20.5 90.5v362q0 52 20 90.5t55.5 63.5
t83 37.5t101.5 12.5q67 0 121 -18h409v-161h-266v-125h266v-161h-266v-101v-11v-14h266v-161h-406q-54 -18 -120 -18z" />
    <glyph glyph-name="oe" unicode="&#x153;" horiz-adv-x="675" 
d="M490 385q0 12 -11 24.5t-26 12.5q-18 0 -29 -12.5t-11 -24.5v-11v-7v-48h77v66zM219 104q11 0 22.5 5.5t11.5 22.5v51v11v124v9v62q0 17 -11.5 22.5t-22.5 5.5t-22.5 -5.5t-11.5 -22.5v-257q0 -17 11.5 -22.5t22.5 -5.5zM650 184q0 -94 -47 -146.5t-146 -52.5
q-76 0 -124 27q-23 -13 -51 -20t-63 -7q-48 0 -84 13.5t-60.5 36.5t-37 53.5t-12.5 65.5v213q0 35 12.5 65.5t37 53.5t60.5 36.5t84 13.5q35 0 63.5 -7.5t51.5 -20.5q23 14 53 21t69 7q51 0 88 -15.5t60.5 -40.5t34.5 -55.5t11 -61.5v-135h-237v-74v-7v-15q0 -17 14.5 -25
t26.5 -8q13 0 26 8t13 25v52h157v0z" />
    <glyph glyph-name="Ydieresis" unicode="&#x178;" horiz-adv-x="576" 
d="M566 692l-188 -427v-307h-180v307l-188 427h185l93 -236l93 236h185zM469 714h-133v133h133v-133zM241 714h-133v133h133v-133z" />
    <glyph glyph-name="AE" unicode="&#xc6;" horiz-adv-x="865" 
d="M379 364v124q0 7 -5.5 16t-15.5 16.5t-25.5 13t-34.5 5.5q-20 0 -35.5 -5.5t-26 -13t-16 -16.5t-5.5 -16v-124h164zM379 203h-164v-245h-180v548q0 52 20 90.5t55.5 63.5t83 37.5t101.5 12.5q67 0 121 -18h409v-161h-266v-15v-10v-100h266v-161h-266v-126h266v-161h-446
v245z" />
    <glyph glyph-name="ae" unicode="&#xe6;" horiz-adv-x="688" 
d="M266 209q-18 -5 -33.5 -7t-27.5 -7t-19 -16t-7 -34q0 -34 33 -34q18 0 36 12t18 36v50zM503 385q0 12 -11 24.5t-26 12.5q-18 0 -29 -12.5t-11 -24.5v-66h77v66zM663 184q0 -94 -47 -146.5t-146 -52.5q-122 0 -169 69q-26 -36 -67.5 -52.5t-86.5 -16.5q-39 0 -63 13.5
t-37 35.5t-17.5 49t-4.5 53q0 46 10 74.5t27 44.5t38.5 22.5t43.5 9t43.5 3.5t38.5 6q14 5 27 15t13 24v47q0 21 -13 31t-24 10t-24 -10t-13 -31v-64h-154v44q0 90 52.5 132t140.5 42q33 0 64 -6t57 -19q23 12 51.5 18.5t65.5 6.5q51 0 88 -15.5t60.5 -40.5t34.5 -55.5
t11 -61.5v-135h-237v-96q0 -17 14.5 -25t26.5 -8q13 0 26 8t13 25v52h157v0z" />
    <glyph glyph-name="logicalnot" unicode="&#xac;" horiz-adv-x="782" 
d="M646 173q-16 -37 -41.5 -68t-58.5 -53.5t-72.5 -35t-82.5 -12.5t-82.5 12.5t-72.5 35t-58.5 53.5t-41.5 68q11 -7 23.5 -11t25.5 -4q21 0 40 14.5t27 30.5q9 -18 29 -32.5t41 -14.5t40 13.5t28 33.5q11 -18 30 -32.5t41 -14.5q21 0 39 14.5t28 32.5q12 -20 30 -32t38 -12
q14 0 26.5 4t23.5 10zM222 565q0 20 14 34t34 14q14 0 25 -7.5t17 -18.5l25 -34v42q0 20 14 34t34 14t34 -14t14 -34v-42l26 38q13 23 40 23q20 0 34 -14t14 -34t-15 -35l-26 -36l55 33q10 6 23 6q20 0 34 -14t14 -34q0 -14 -6.5 -24.5t-17.5 -16.5l-39 -27h47q20 0 34 -14
t14 -34t-14 -34t-34 -14h-94v-83h-271v83h-91q-20 0 -34 14t-14 34t14 34t34 14h34l-32 24q-10 6 -16 16.5t-6 23.5q0 20 14 34t34 14q13 0 26 -8l43 -28l-27 45q-8 11 -8 26zM685 369q0 61 -23 114.5t-63 93.5t-93.5 63t-114.5 23t-114.5 -23t-93.5 -63t-63 -93.5
t-23 -114.5v-88q0 -61 23 -114.5t63 -93.5t93.5 -63t114.5 -23t114.5 23t93.5 63t63 93.5t23 114.5v88zM50 369q0 70 27 132.5t73 108.5t108 73t133 27q70 0 132.5 -27t108.5 -73t73 -108.5t27 -132.5v-88q0 -71 -27 -133t-73 -108t-108.5 -73t-132.5 -27q-71 0 -133 27
t-108 73t-73 108t-27 133v88v0z" />
    <glyph glyph-name="perthousand" unicode="&#x2030;" horiz-adv-x="814" 
d="M684 74q6 0 12 4.5t6 16.5v208q0 12 -6 16.5t-12 4.5q-5 0 -11 -4.5t-6 -16.5v-208q0 -12 6 -16.5t11 -4.5zM684 413q25 0 43.5 -10t31.5 -27.5t19.5 -40.5t6.5 -49v-174q0 -26 -6.5 -49.5t-19.5 -40.5t-31.5 -27t-43.5 -10q-24 0 -43 10t-31.5 27t-19 40.5t-6.5 49.5
v174q0 26 6.5 49t19 40.5t31.5 27.5t43 10zM455 74q6 0 12 4.5t6 16.5v208q0 12 -6 16.5t-12 4.5q-5 0 -11 -4.5t-6 -16.5v-208q0 -12 6 -16.5t11 -4.5zM455 413q25 0 43.5 -10t31.5 -27.5t19.5 -40.5t6.5 -49v-174q0 -26 -6.5 -49.5t-19.5 -40.5t-31.5 -27t-43.5 -10
q-24 0 -43 10t-31.5 27t-19 40.5t-6.5 49.5v174q0 26 6.5 49t19 40.5t31.5 27.5t43 10zM125 331q6 0 12 4.5t6 16.5v208q0 12 -6 16.5t-12 4.5q-5 0 -11 -4.5t-6 -16.5v-208q0 -12 6 -16.5t11 -4.5zM334 655h90l-176 -655h-89zM125 670q25 0 43.5 -10t31.5 -27.5t19.5 -40.5
t6.5 -49v-174q0 -26 -6.5 -49.5t-19.5 -40.5t-31.5 -27t-43.5 -10q-24 0 -43 10t-31.5 27t-19 40.5t-6.5 49.5v174q0 26 6.5 49t19 40.5t31.5 27.5t43 10z" />
    <glyph glyph-name="mu" unicode="&#xb5;" horiz-adv-x="517" 
d="M216 468q0 -14 5.5 -25.5t14.5 -19.5t19.5 -12.5t20.5 -4.5h145v-162h-145q-10 0 -20.5 -4.5t-19.5 -12.5t-14.5 -19.5t-5.5 -25.5q0 -28 13.5 -45.5t36.5 -17.5h226v-161h-256q-42 0 -79 11t-64 33.5t-42.5 57.5t-15.5 82q0 45 12.5 78t29 54.5t33.5 33.5t26 17
q-9 4 -26 16.5t-33.5 34t-29 54.5t-12.5 78q0 47 15.5 82t42.5 57.5t64 33.5t79 11h256v-161h-226q-23 0 -36.5 -17.5t-13.5 -45.5z" />
    <glyph glyph-name="mu" unicode="&#x3bc;" horiz-adv-x="517" 
d="M216 468q0 -14 5.5 -25.5t14.5 -19.5t19.5 -12.5t20.5 -4.5h145v-162h-145q-10 0 -20.5 -4.5t-19.5 -12.5t-14.5 -19.5t-5.5 -25.5q0 -28 13.5 -45.5t36.5 -17.5h226v-161h-256q-42 0 -79 11t-64 33.5t-42.5 57.5t-15.5 82q0 45 12.5 78t29 54.5t33.5 33.5t26 17
q-9 4 -26 16.5t-33.5 34t-29 54.5t-12.5 78q0 47 15.5 82t42.5 57.5t64 33.5t79 11h256v-161h-226q-23 0 -36.5 -17.5t-13.5 -45.5z" />
    <glyph glyph-name="less" unicode="&#x3c;" horiz-adv-x="531" 
d="M44 405l442 250v-180l-263 -148l263 -144v-179l-442 245v156z" />
    <glyph glyph-name="greater" unicode="&#x3e;" horiz-adv-x="531" 
d="M486 249l-442 -245v179l263 144l-263 148v180l442 -250v-156z" />
    <glyph glyph-name="brokenbar" unicode="&#xa6;" horiz-adv-x="220" 
d="M170 329h-120v363h120v-363zM50 -133v363h120v-363h-120z" />
    <glyph glyph-name="twosuperior" unicode="&#xb2;" 
d="M124 366q0 19 12.5 35.5t32 31.5t41.5 28.5l41.5 26.5t32 25.5t12.5 26.5v39q0 14 -10.5 22.5t-21.5 8.5t-21 -8.5t-10 -22.5v-27h-109v44q0 34 13 55t33.5 32.5t45 15.5t48.5 4t49 -4t45.5 -15.5t33.5 -32.5t13 -55v-86q0 -26 -22.5 -46.5t-50.5 -38.5l-53.5 -34.5
t-32.5 -34.5h160v-96h-282v106z" />
    <glyph glyph-name="threesuperior" unicode="&#xb3;" 
d="M208 519h43q28 2 37 15.5t9 25.5v19q0 14 -10.5 22.5t-21.5 8.5t-21.5 -8.5t-10.5 -22.5v-20h-109v37q0 34 13 55.5t33.5 32.5t45.5 15t49 4t49 -4t45.5 -15t33.5 -32.5t13 -55.5t-3 -54t-10 -31.5t-18.5 -17t-27.5 -9.5q16 -5 27.5 -11.5t18 -20t9.5 -36t3 -58.5
q0 -35 -13 -56t-33.5 -32.5t-45.5 -15.5t-49 -4t-48.5 4t-45 15.5t-33.5 32.5t-13 56v37h109v-21q0 -14 10.5 -22t20.5 -8q11 0 21.5 8t10.5 22v19q0 11 -14 22.5t-31 11.5h-43v92z" />
    <glyph glyph-name="onesuperior" unicode="&#xb9;" 
d="M216 584h-45v77q25 2 38 10.5t24 20.5h97v-432h-114v324z" />
    <glyph glyph-name="threequarters" unicode="&#xbe;" horiz-adv-x="7137" 
d="M6925 136h27q16 0 29 3.5t13 23.5q0 16 -11.5 20t-23.5 4h-34v-51zM6900 208h62q57 0 57 -47q0 -21 -12.5 -31t-29.5 -12l46 -72h-27l-44 70h-27v-70h-25v162zM6840 127q0 -25 8.5 -46.5t24 -37.5t36.5 -25t45 -9t44.5 9t36 25t24 37.5t8.5 46.5t-8.5 46t-24 37t-36 25
t-44.5 9t-45 -9t-36.5 -25t-24 -37t-8.5 -46zM6815 127q0 29 11 54.5t30 44t44 29t54 10.5q28 0 53 -10.5t44 -29t30 -44t11 -54.5t-11 -54.5t-30 -44t-44 -29t-53 -10.5q-29 0 -54 10.5t-44 29t-30 44t-11 54.5zM1023 209q-18 -5 -33.5 -7t-27.5 -7t-19 -16t-7 -34
q0 -34 33 -34q18 0 36 12t18 36v50zM3879 390q0 12 -11 24.5t-26 12.5q-18 0 -29 -12.5t-11 -24.5v-71h77v71zM2738 541h-160v88h160v-88zM5589 94q11 0 22.5 5.5t11.5 22.5v277q0 17 -11.5 22.5t-22.5 5.5t-22.5 -5.5t-11.5 -22.5v-277q0 -17 11.5 -22.5t22.5 -5.5z
M6557 407q-17 0 -29.5 -9t-12.5 -27v-221q0 -14 10.5 -25t31.5 -11q17 0 27.5 11t10.5 25v221q0 18 -12 27t-26 9zM2152 119h98q30 0 49.5 25.5t31 59.5t15.5 69t4 53t-2.5 52t-12.5 68t-30 59.5t-55 25.5h-98v-412zM2738 0h-160v521h160v-521zM6325 0h-160v655h160v-655z
M1391 0h-160v655h160v-655zM6146 247h-125v134q0 8 -7.5 12.5t-13.5 4.5q-5 0 -12.5 -4.5t-7.5 -12.5v-381h-160v521h139v-38q20 28 39.5 40t56.5 12q27 0 44.5 -9.5t28 -25t14.5 -36.5t4 -45v-172zM3027 338q0 14 -1 29t-5.5 27t-14.5 19.5t-28 7.5q-20 0 -32 -12t-12 -32
q0 -22 18 -32.5t45.5 -18l59.5 -16.5t59.5 -26t45.5 -46.5t18 -78.5q0 -92 -53 -137t-141 -45q-105 0 -156.5 47t-51.5 148v7h150q0 -17 2 -32.5t7.5 -27t15 -18.5t25.5 -7q25 0 35.5 12.5t10.5 42.5q0 22 -18.5 32.5t-46 17l-60 14.5t-60 24.5t-46 46.5t-18.5 82
q0 43 18 75t47.5 53t67.5 31.5t78 10.5q39 0 73.5 -9.5t60.5 -31t41.5 -55t15.5 -81.5v-21h-150v0zM1619 393v-267q0 -9 6 -13.5t12 -4.5q5 0 11.5 4.5t6.5 13.5v146h137v-152q0 -36 -13.5 -63t-36.5 -45.5t-52.5 -27.5t-62.5 -9q-37 0 -67.5 9t-53 27.5t-35 45.5t-12.5 63
v273h-49v128h49v95h160v-95h173v-128h-173zM795 362q0 90 52.5 132t140.5 42q36 0 68.5 -7t58 -22t40.5 -39t15 -57v-335q0 -9 2 -20t5 -22t6 -20.5t5 -13.5h-146q-7 9 -11.5 21t-7.5 23q-21 -25 -52.5 -42t-66.5 -17q-39 0 -63 13.5t-37 35.5t-17.5 49t-4.5 53
q0 46 10 74.5t27 44.5t38.5 22.5t43.5 9t43.5 3.5t38.5 6q14 5 27 15t13 24v47q0 21 -15 31t-26 10t-26 -10t-15 -31v-64h-146v44zM3452 0v345q0 18 -14.5 27t-25.5 9t-26.5 -9.5t-15.5 -26.5v-345h-160v521h153v-49q20 28 51.5 43.5t68.5 15.5q27 0 50.5 -8.5t41 -23.5
t27.5 -35.5t10 -44.5v-419h-160zM4039 184q0 -94 -47.5 -151.5t-145.5 -57.5q-104 0 -154 55.5t-50 163.5v124q0 49 10 91t33.5 72.5t62.5 47.5t97 17q51 0 88 -17t60.5 -43.5t34.5 -59t11 -63.5v-135h-237v-101q0 -17 14.5 -25t26.5 -8q13 0 26 8t13 25v57h157v0zM5589 546
q48 0 84 -13.5t60.5 -36.5t37 -53.5t12.5 -65.5v-233q0 -35 -12.5 -65.5t-37 -53.5t-60.5 -36.5t-84 -13.5t-84 13.5t-60.5 36.5t-37 53.5t-12.5 65.5v233q0 35 12.5 65.5t37 53.5t60.5 36.5t84 13.5zM6755 655v-655h-162v41q-21 -28 -47.5 -40.5t-54.5 -12.5
q-34 0 -59.5 13.5t-42.5 37t-25.5 53.5t-8.5 63v202q0 35 6.5 67.5t22.5 57t42.5 39.5t66.5 15q29 0 57.5 -11t43.5 -37v167h161zM4481 521v-563q0 -36 -15 -66t-41.5 -51t-62.5 -33t-79 -12q-93 0 -148.5 35t-55.5 112v57h160v-36q0 -16 15 -26t26 -10t26 9.5t15 26.5v120
q-8 -8 -20 -16.5t-26 -16t-29 -12t-28 -4.5q-30 0 -55 10t-44 29t-29.5 45.5t-10.5 58.5v343h160v-307q0 -18 15 -27t26 -9t26 9.5t15 26.5v307h160zM1964 692h290q91 0 147.5 -30t88 -80.5t43 -117t13.5 -138.5v-2q-2 -72 -13.5 -138.5t-43 -117t-88 -80.5t-147.5 -30h-290
v734zM391 47q-15 -29 -30 -49t-34.5 -33t-45 -19t-61.5 -6q-31 0 -63 10.5t-58 31.5t-42.5 52.5t-16.5 73.5v584h180v-541q0 -16 12.5 -25t24.5 -9q11 0 25 9t14 25v541h180v-541q0 -16 13 -25t25 -9t24.5 9t12.5 25v541h180v-584q0 -44 -16.5 -76t-42 -52.5t-58 -30
t-63.5 -9.5q-34 0 -58 6t-42 19t-32 33t-28 49zM4999 47q-15 -29 -30 -49t-34.5 -33t-45 -19t-61.5 -6q-31 0 -63 10.5t-58 31.5t-42.5 52.5t-16.5 73.5v584h180v-541q0 -16 12.5 -25t24.5 -9q11 0 25 9t14 25v541h180v-541q0 -16 13 -25t25 -9t24.5 9t12.5 25v541h180v-584
q0 -44 -16.5 -76t-42 -52.5t-58 -30t-63.5 -9.5q-34 0 -58 6t-42 19t-32 33t-28 49z" />
    <glyph glyph-name="onequarter" unicode="&#xbc;" horiz-adv-x="7858" 
d="M7661 134h27q16 0 29 3.5t13 23.5q0 16 -11.5 20t-23.5 4h-34v-51zM7636 206h62q57 0 57 -47q0 -21 -12.5 -31t-29.5 -12l46 -72h-27l-44 70h-27v-70h-25v162zM7576 125q0 -25 8.5 -46.5t24 -37.5t36.5 -25t45 -9t44.5 9t36 25t24 37.5t8.5 46.5t-8.5 46t-24 37t-36 25
t-44.5 9t-45 -9t-36.5 -25t-24 -37t-8.5 -46zM7551 125q0 29 11 54.5t30 44t44 29t54 10.5q28 0 53 -10.5t44 -29t30 -44t11 -54.5t-11 -54.5t-30 -44t-44 -29t-53 -10.5q-29 0 -54 10.5t-44 29t-30 44t-11 54.5zM2635 83h-59q15 -21 30.5 -37t28.5 -27v64zM2676 18
q13 11 28.5 27t31.5 38h-60v-65v0zM2676 396h66q-17 24 -34.5 42t-31.5 31v-73zM2635 469l-32 -31t-34 -42h66v73zM2723 6q38 10 69 29.5t56 47.5h-63q-14 -24 -30 -43.5t-32 -33.5zM2463 83q50 -57 125 -77q-32 29 -62 77h-63v0zM2854 396q-25 30 -58 51.5t-72 32.5
q17 -16 34.5 -37t31.5 -47h64v0zM2587 480q-39 -11 -72.5 -32.5t-58.5 -51.5h65q14 26 31.5 46.5t34.5 37.5zM1031 209q-18 -5 -33.5 -7t-27.5 -7t-19 -16t-7 -34q0 -34 33 -34q18 0 36 12t18 36v50zM2430 357q-23 -43 -29 -93h80q1 26 6.5 49t13.5 44h-71v0zM2909 264
q-2 25 -9 48.5t-18 44.5h-72q16 -42 21 -93h78zM4683 370q0 12 -11 24.5t-26 12.5q-18 0 -29 -12.5t-11 -24.5v-71h77v71zM2877 121q14 23 22 49t10 54h-78q-2 -29 -8.5 -54.5t-16.5 -48.5h71v0zM2505 121q-10 23 -16.5 48.5t-7.5 54.5h-80q6 -57 33 -103h71v0zM2676 264
h114q-2 26 -8.5 49.5t-16.5 43.5h-89v-93zM2635 357h-89q-10 -20 -16.5 -43.5t-8.5 -49.5h114v93zM2635 224h-114q2 -29 10.5 -54.5t19.5 -48.5h84v103zM2676 121h83q27 47 31 103h-114v-103zM3560 545h-160v88h160v-88zM7311 390q-15 0 -26.5 -9t-11.5 -27v-204
q0 -14 9.5 -25t28.5 -11q16 0 25.5 11t9.5 25v204q0 18 -11 27t-24 9zM6342 94q11 0 22.5 5.5t11.5 22.5v250q0 17 -11.5 22.5t-22.5 5.5t-22.5 -5.5t-11.5 -22.5v-250q0 -17 11.5 -22.5t22.5 -5.5zM3560 0h-160v509h160v-509zM7087 0h-160v631h160v-631zM1394 0h-160v631
h160v-631zM6887 230h-125v134q0 8 -5 12.5t-11 4.5q-5 0 -10 -4.5t-5 -12.5v-364h-160v504h129v-38q20 28 39.5 40t56.5 12q27 0 44.5 -9.5t28 -25t14.5 -36.5t4 -45v-172zM3832 335q0 14 -0.5 29.5t-5 28t-13.5 20.5t-25 8q-17 0 -28.5 -12t-11.5 -32q0 -29 22 -42.5
t52 -21t60.5 -14t47.5 -20.5q29 -24 39.5 -58t10.5 -72q0 -48 -15.5 -81t-42 -53.5t-61.5 -29t-75 -8.5q-94 0 -140.5 47t-46.5 148v7h144q0 -17 2 -33t6.5 -28.5t13.5 -20t23 -7.5q23 0 35.5 14.5t12.5 44.5q0 20 -18 29.5t-44.5 16.5l-57.5 15t-57.5 25.5t-44.5 48
t-18 82.5q0 43 16.5 75t43 53t60.5 31.5t70 10.5q41 0 76 -10t60.5 -31.5t40 -55t14.5 -80.5v-24h-145v0zM1641 388v-262q0 -9 6 -13.5t12 -4.5q5 0 11.5 4.5t6.5 13.5v146h137v-152q0 -36 -13.5 -63t-36.5 -45.5t-52.5 -27.5t-62.5 -9q-37 0 -67.5 9t-53 27.5t-35 45.5
t-12.5 63v268h-55v121h55v87h160v-87h173v-121h-173zM4843 174q0 -94 -47 -146.5t-146 -52.5q-52 0 -87.5 14t-57.5 42t-32 68.5t-10 94.5v104q0 49 7.5 91t28 72.5t56.5 47.5t94 17q51 0 88 -17t60.5 -43.5t34.5 -59t11 -63.5v-135h-237v-81q0 -17 14.5 -25t26.5 -8
q13 0 26 8t13 25v47h157v0zM4262 0v328q0 18 -11 27t-22 9t-26.5 -9.5t-15.5 -26.5v-328h-160v504h153v-49q20 28 48 43.5t65 15.5q27 0 50.5 -8.5t41 -23.5t27.5 -35.5t10 -44.5v-402h-160zM803 362q0 45 13.5 76t39 50.5t61 28.5t79.5 9q36 0 68.5 -7t58 -22t40.5 -39
t15 -57v-325q0 -9 2 -20t5 -22t6 -20.5t5 -13.5h-146q-7 9 -11.5 21t-7.5 23q-21 -25 -52.5 -42t-66.5 -17q-39 0 -63 13.5t-37 35.5t-17.5 49t-4.5 53q0 46 10 74.5t27 44.5t38.5 22.5t43.5 9t43.5 3.5t38.5 6q14 5 27 15t13 24v47q0 21 -15 31t-26 10t-26 -10t-15 -31v-64
h-146v44zM6342 519q48 0 84 -13.5t60.5 -36.5t37 -53.5t12.5 -65.5v-206q0 -35 -12.5 -65.5t-37 -53.5t-60.5 -36.5t-84 -13.5t-84 13.5t-60.5 36.5t-37 53.5t-12.5 65.5v206q0 35 12.5 65.5t37 53.5t60.5 36.5t84 13.5zM7491 632v-632h-147v41q-19 -28 -43 -40.5t-50 -12.5
q-30 0 -53 13.5t-38.5 37t-23.5 53.5t-8 63v185q0 35 6 67.5t20 57t38.5 39.5t60.5 15q26 0 52 -11t40 -37v161h146zM5264 504v-546q0 -36 -15 -66t-41.5 -51t-62.5 -33t-79 -12q-94 0 -139 34.5t-45 112.5v57h140v-46q0 -16 15 -26t26 -10t26 9.5t15 26.5v130l-5 -5
q-16 -16 -39 -33.5t-59 -17.5q-30 0 -53 11.5t-39 31.5t-24.5 47.5t-8.5 59.5v326h146v-290q0 -18 15 -27t26 -9t26 9.5t15 26.5v290h160zM5764 47q-15 -29 -30 -49t-34.5 -33t-45 -19t-61.5 -6q-31 0 -63 10.5t-58 31.5t-42.5 52.5t-16.5 73.5v561h180v-518q0 -16 12.5 -25
t24.5 -9q11 0 25 9t14 25v518h180v-518q0 -16 13 -25t25 -9t24.5 9t12.5 25v518h180v-561q0 -44 -16.5 -76t-42 -52.5t-58 -30t-63.5 -9.5q-34 0 -58 6t-42 19t-32 33t-28 49zM400 47q-15 -29 -30 -49t-34.5 -33t-45 -19t-61.5 -6q-31 0 -63 10.5t-58 31.5t-42.5 52.5
t-16.5 73.5v561h180v-518q0 -16 12.5 -25t24.5 -9q11 0 25 9t14 25v518h180v-518q0 -16 13 -25t25 -9t24.5 9t12.5 25v518h180v-561q0 -44 -16.5 -76t-42 -52.5t-58 -30t-63.5 -9.5q-34 0 -58 6t-42 19t-32 33t-28 49zM2656 -42q-61 0 -115 22.5t-94 61t-63.5 90.5
t-23.5 111q0 48 14.5 90t41.5 77q-23 -11 -45 -15t-42 -4q-41 0 -71.5 12t-51 33t-31 48.5t-10.5 58.5q0 42 17.5 78.5t47 63.5t67.5 42.5t79 15.5q51 0 87 -25.5t56 -63.5q16 -31 16 -69q0 -50 -26 -94q32 18 69 28t78 10q38 0 73.5 -9t67.5 -26q-24 42 -24 91q0 31 12 60
t33.5 50.5t50.5 34.5t63 13q40 0 78 -15.5t67.5 -42.5t47 -63t17.5 -77q0 -31 -10 -59t-30.5 -49.5t-51 -34t-71.5 -12.5q-39 0 -82 18q26 -35 40 -76.5t14 -88.5q0 -59 -23 -111t-63 -90.5t-94 -61t-115 -22.5zM2142 802v-906h837q60 0 98 24t60.5 55t31 61t8.5 42v504
q0 31 -10 69.5t-33 72t-61 56t-94 22.5h-837zM2987 992q36 0 78 -10t83.5 -30t79.5 -51t67.5 -72.5t47 -94t17.5 -116.5v-548q-2 -32 -11.5 -71t-28.5 -78.5t-48 -77t-70.5 -66t-97 -46t-125.5 -17.5h-1035v1278h1043z" />
    <glyph glyph-name="onehalf" unicode="&#xbd;" horiz-adv-x="1497" 
d="M736 83h-59q15 -21 30.5 -37t28.5 -27v64zM777 18q13 11 28.5 27t31.5 38h-60v-65v0zM777 396h66q-17 24 -34.5 42t-31.5 31v-73zM736 469l-32 -31t-34 -42h66v73zM824 6q38 10 69 29.5t56 47.5h-63q-14 -24 -30 -43.5t-32 -33.5zM564 83q50 -57 125 -77q-32 29 -62 77
h-63v0zM955 396q-25 30 -58 51.5t-72 32.5q17 -16 34.5 -37t31.5 -47h64v0zM688 480q-39 -11 -72.5 -32.5t-58.5 -51.5h65q14 26 31.5 46.5t34.5 37.5zM531 357q-23 -43 -29 -93h80q1 26 6.5 49t13.5 44h-71v0zM1010 264q-2 25 -9 48.5t-18 44.5h-72q16 -42 21 -93h78z
M978 121q14 23 22 49t10 54h-78q-2 -29 -8.5 -54.5t-16.5 -48.5h71v0zM606 121q-10 23 -16.5 48.5t-7.5 54.5h-80q6 -57 33 -103h71v0zM777 264h114q-2 26 -8.5 49.5t-16.5 43.5h-89v-93zM736 357h-89q-10 -20 -16.5 -43.5t-8.5 -49.5h114v93zM736 224h-114
q2 -29 10.5 -54.5t19.5 -48.5h84v103zM777 121h83q27 47 31 103h-114v-103zM757 -42q-61 0 -115 22.5t-94 61t-63.5 90.5t-23.5 111q0 48 14.5 90t41.5 77q-23 -11 -45 -15t-42 -4q-41 0 -71.5 12t-51 33t-31 48.5t-10.5 58.5q0 42 17.5 78.5t47 63.5t67.5 42.5t79 15.5
q34 0 63 -13t50.5 -34.5t33.5 -50.5t12 -60q0 -50 -26 -94q32 18 69 28t78 10q38 0 73.5 -9t67.5 -26q-24 42 -24 91q0 31 12 60t33.5 50.5t50.5 34.5t63 13q40 0 78 -15.5t67.5 -42.5t47 -63t17.5 -77q0 -31 -10 -59t-30.5 -49.5t-51 -34t-71.5 -12.5q-39 0 -82 18
q26 -35 40 -76.5t14 -88.5q0 -59 -23 -111t-63 -90.5t-94 -61t-115 -22.5zM243 802v-906h837q60 0 98 24t60.5 55t31 61t8.5 42v504q0 31 -10 69.5t-33 72t-61 56t-94 22.5h-837zM1088 992q36 0 78 -10t83.5 -30t79.5 -51t67.5 -72.5t47 -94t17.5 -116.5v-548
q-2 -32 -11.5 -71t-28.5 -78.5t-48 -77t-70.5 -66t-97 -46t-125.5 -17.5h-1035v1278h1043z" />
    <glyph glyph-name="Eth" unicode="&#xd0;" horiz-adv-x="676" 
d="M230 441h162v-82h-162v-240h106q30 0 49.5 25.5t31 59.5t15.5 69t4 53t-2.5 52t-12.5 68t-30 59.5t-55 25.5h-106v-90zM50 359h-40v82h40v251h290q91 0 146.5 -30t85.5 -80.5t40 -117t12 -138.5v-2q-2 -72 -12 -138.5t-40 -117t-85.5 -80.5t-146.5 -30h-290v401z" />
    <glyph glyph-name="multiply" unicode="&#xd7;" 
d="M358 327l107 -107l-93 -94l-107 108l-106 -106l-94 93l106 106l-106 106l94 93l106 -106l107 108l93 -94z" />
    <glyph glyph-name="Thorn" unicode="&#xde;" horiz-adv-x="613" 
d="M230 217h98q24 0 37.5 13t21 30.5t9.5 35.5t2 28t-2 28.5t-9.5 36.5t-21.5 31t-37 13h-98v-216zM230 692v-98h92q91 0 142 -22t76 -59.5t30.5 -86t7.5 -102.5q-2 -53 -7.5 -101.5t-30.5 -85.5t-76 -59t-142 -22h-92v-98h-180v734h180z" />
    <glyph glyph-name="thorn" unicode="&#xfe;" horiz-adv-x="465" 
d="M238 114q17 0 29.5 9t12.5 27v221q0 14 -10.5 25t-31.5 11q-17 0 -27.5 -11t-10.5 -25v-221q0 -18 12 -27t26 -9zM40 -134v788h162v-174q21 28 47.5 40.5t54.5 12.5q34 0 59.5 -13.5t42.5 -37t25.5 -53.5t8.5 -63v-202q0 -35 -6.5 -67.5t-22.5 -57t-42.5 -39.5t-66.5 -15
q-29 0 -57.5 11t-43.5 37v-167h-161z" />
    <glyph glyph-name="lslash" unicode="&#x142;" horiz-adv-x="401" 
d="M-8 425l124 29v201h160v-162l118 28l18 -73l-136 -33v-415h-160v377l-107 -25z" />
    <glyph glyph-name="minus" unicode="&#x2212;" horiz-adv-x="500" 
d="M19 242v172h462v-172h-462z" />
    <glyph glyph-name="Euro" unicode="&#x20ac;" 
d="M394 239h-175q0 -22 3.5 -42t11.5 -35.5t20.5 -24.5t32.5 -9q19 0 30.5 5.5t18.5 15.5t11 23t8 28h125q-2 -42 -12 -80.5t-32.5 -68.5t-58.5 -48t-90 -18q-61 0 -104.5 19.5t-71 53.5t-40 78.5t-12.5 95.5v7h-59l20 72h39v33h-59l20 72h39v3q0 50 13 95.5t40.5 80
t70.5 55t104 20.5q67 0 106 -18t56.5 -48t17 -69t-12.5 -81h-100q0 10 -1.5 22.5t-8 23.5t-20 19t-37.5 8q-19 0 -32 -9.5t-20.5 -25t-11 -35.5t-4.5 -41h225l-20 -72h-205v-33h195z" />
    <glyph glyph-name="scaron" unicode="&#x161;" horiz-adv-x="484" 
d="M287 338q0 14 -1 29t-5.5 27t-14.5 19.5t-28 7.5q-20 0 -32 -12t-12 -32q0 -22 18 -32.5t45.5 -18l59.5 -16.5t59.5 -26t45.5 -46.5t18 -78.5q0 -46 -14 -79t-39.5 -54t-61 -31t-79.5 -10q-105 0 -156.5 43t-51.5 144v7h150q0 -17 2 -31.5t7.5 -25.5t15 -17.5t25.5 -6.5
q25 0 35.5 10.5t10.5 40.5q0 22 -18.5 32.5t-46 17l-60 14.5t-60 24.5t-46 46.5t-18.5 82q0 38 12.5 69.5t39 54t66 34.5t93.5 12q39 0 73.5 -9.5t60.5 -31t41.5 -55t15.5 -81.5v-21h-150v0zM47 704h140l61 -58l63 58h138l-136 -136h-129z" />
    <glyph glyph-name="yacute" unicode="&#xfd;" horiz-adv-x="477" 
d="M437 521v-563q0 -36 -15 -66t-41.5 -51t-62.5 -33t-79 -12q-93 0 -148.5 35t-55.5 112v57h160v-36q0 -16 15 -26t26 -10t26 9.5t15 26.5v120q-8 -8 -20 -16.5t-26 -16t-29 -12t-28 -4.5q-30 0 -55 10t-44 29t-29.5 45.5t-10.5 58.5v343h160v-307q0 -18 15 -27t26 -9
t26 9.5t15 26.5v307h160zM405 606l-212 -56l-25 62l194 92z" />
    <glyph glyph-name="eth" unicode="&#xf0;" horiz-adv-x="516" 
d="M296 279q-2 20 -17.5 30.5t-30.5 10.5q-16 0 -32 -12t-16 -33v-104q0 -21 16 -33t32 -12t32 12t16 33v108zM56 537l200 48q-18 31 -45 69h152q9 -8 16.5 -17l15.5 -19l63 15l18 -73l-42 -10q27 -63 27 -133v-270q0 -52 -20 -84t-50.5 -49.5t-68.5 -23.5t-74 -6t-74 6
t-68.5 23.5t-50.5 49.5t-20 84v142q0 52 20 84t50.5 49.5t68.5 23.5t74 6q8 0 24.5 -6t23.5 -17v33q0 23 -8 53l-215 -51z" />
    <glyph glyph-name="interrobang" unicode="&#x203d;" horiz-adv-x="753" 
d="M451 -42h-160v160h160v-160zM287 503l98 -182h30q62 0 90 55l43 87q3 7 3 14q0 17 -11 27t-26 10q-9 0 -17.5 -4t-13.5 -14l-37 -72zM286 505l55 111q26 51 61.5 71t73.5 20q35 0 69 -11.5t65 -27.5q25 -13 50 -29t44.5 -36.5t32 -46t12.5 -55.5q0 -18 -5 -38t-16 -42
q-48 -98 -88 -151t-75 -77.5t-67.5 -28.5t-66.5 -4h-140l-281 459l164 94z" />
    <glyph glyph-name="Lslash" unicode="&#x141;" horiz-adv-x="516" 
d="M-19 425l69 16v251h180v-208l153 37l18 -73l-171 -41v-288h270v-161h-450v406l-52 -12z" />
    <glyph glyph-name="Zcaron" unicode="&#x17d;" horiz-adv-x="533" 
d="M508 692v-161l-267 -412h267v-161h-483v161l268 412h-268v161h483zM76 841h140l61 -58l63 58h138l-136 -136h-129z" />
    <glyph glyph-name="zcaron" unicode="&#x17e;" horiz-adv-x="421" 
d="M386 521v-117l-166 -287h166v-117h-351v117l167 287h-167v117h351zM11 679h140l61 -58l63 58h138l-136 -136h-129z" />
    <glyph glyph-name="Yacute" unicode="&#xdd;" horiz-adv-x="576" 
d="M566 692l-188 -427v-307h-180v307l-188 427h185l93 -236l93 236h185zM450 768l-212 -56l-25 62l194 92z" />
    <glyph glyph-name="Scaron" unicode="&#x160;" horiz-adv-x="554" 
d="M278 549q-18 0 -31.5 -5.5t-22.5 -13t-14 -16.5t-5 -16v-24q0 -23 24 -37t60 -27l78 -28.5t78 -40t60 -61.5t24 -94v-42q0 -52 -19.5 -90.5t-53.5 -63.5t-79.5 -37.5t-97.5 -12.5q-53 0 -99 12.5t-80.5 37.5t-54.5 63.5t-20 90.5v55h180v-47q0 -7 4.5 -16t13.5 -16.5
t22.5 -13t30.5 -5.5q18 0 31.5 5.5t22.5 13t14 16.5t5 16v24q0 23 -24 37t-60 27l-78 28.5t-78 40t-60 61.5t-24 94v42q0 52 19.5 90.5t53.5 63.5t79.5 37.5t97.5 12.5q53 0 99 -12.5t80.5 -37.5t54.5 -63.5t20 -90.5v-55h-180v47q0 16 -18.5 33.5t-52.5 17.5zM79 864h140
l61 -58l63 58h138l-136 -136h-129z" />
    </font>
</defs>
</svg>
