<?xml version="1.0" encoding="utf-8"?>
<!-- Generator: Adobe Illustrator 19.1.0, SVG Export Plug-In . SVG Version: 6.00 Build 0)  -->
<svg version="1.1" baseProfile="tiny" id="Capa_1" xmlns="http://www.w3.org/2000/svg" xmlns:xlink="http://www.w3.org/1999/xlink"
	 x="0px" y="0px" viewBox="0 0 265 265" xml:space="preserve">
<path fill="#F8AD37" d="M208.2,23.8L151.7,109L224,36.6l-68.9,75.6l82.5-60.4L157.8,116l90.7-47.2L160,120.1l96.9-32.8l-95.2,37.1
	l100.8-17.6l-99.9,22.2l102.3-2l-102.1,6.6l101.4,13.6l-101.9-9l98.1,29l-99.3-24.4l92.5,43.6l-94.4-39.3l84.8,57.2l-87.3-53.3
	l75.1,69.5l-78.2-66l63.6,80.2l-67.2-77.2l50.6,88.9l-54.6-86.5l36.4,95.6l-40.7-93.8l21.4,100.1l-26-99l6,102.2l-10.6-101.8
	l-9.8,101.7l5.1-102.2l-25.2,99.2l20.6-100.2l-39.9,94.2l35.7-95.9l-53.9,86.8l49.9-89.3l-66.5,77.7l62.9-80.7L34,221.2l74.5-70.1
	l-86.9,54.1l84.3-58l-94.1,40.1l92.1-44.3L4.8,168.3l97.9-29.8L0.9,148.4l101.2-14.4L0,128.2l102.3,1.2l-100-21.3l100.9,16.7
	L7.6,88.4l97.2,32L15.8,69.9l91.1,46.4L26.8,52.8l83,59.9l-69.5-75l72.9,71.8L55.9,24.7l61,82.1L73.2,14l47.8,90.4L91.9,6.4
	l33.5,96.7L111.6,1.7L130,102.4L132,0l2.8,102.3L152.3,1.5L139.4,103l32.7-97l-28.2,98.4L191,13.5l-43.1,92.9L208.2,23.8z"/>
</svg>
